<?xml version="1.0" encoding="utf-8"?>
<!-- Generator: Adobe Illustrator 24.0.0, SVG Export Plug-In . SVG Version: 6.00 Build 0)  -->
<svg version="1.1" id="图层_1" xmlns="http://www.w3.org/2000/svg" xmlns:xlink="http://www.w3.org/1999/xlink" x="0px" y="0px"
	 viewBox="0 0 435.56 213.49" style="enable-background:new 0 0 435.56 213.49;" xml:space="preserve">
<style type="text/css">
	.st0{display:none;}
	.st1{display:inline;}
	.st2{fill:none;stroke:#E95513;stroke-width:0.5;stroke-miterlimit:10;}
	.st3{fill:#FFFFFF;}
	.st4{fill:#E95513;}
	.st5{fill:#F29600;}
	.st6{fill:#F7F7F7;}
	.st7{font-family:'FZQKBYSJW--GB1-0';}
	.st8{font-size:8.8403px;}
	.st9{display:none;opacity:0.36;fill:url(#SVGID_1_);}
	.st10{display:none;opacity:0.36;fill:url(#SVGID_2_);}
	.st11{display:none;opacity:0.36;fill:url(#SVGID_3_);}
	.st12{display:none;fill:none;stroke:url(#SVGID_4_);stroke-width:2;stroke-miterlimit:10;}
	.st13{display:none;fill:none;stroke:url(#SVGID_5_);stroke-width:2;stroke-miterlimit:10;}
	.st14{display:none;fill:none;stroke:url(#SVGID_6_);stroke-width:2;stroke-miterlimit:10;}
	.st15{display:none;fill:none;stroke:url(#SVGID_7_);stroke-width:2;stroke-miterlimit:10;}
	.st16{display:none;fill:none;stroke:url(#SVGID_8_);stroke-width:2;stroke-miterlimit:10;}
	.st17{display:none;opacity:0.5;fill:url(#SVGID_9_);}
	.st18{display:none;opacity:0.5;fill:url(#SVGID_10_);}
	.st19{display:none;fill:none;stroke:url(#SVGID_11_);stroke-width:2;stroke-miterlimit:10;}
	.st20{display:none;fill:none;stroke:url(#SVGID_12_);stroke-width:2;stroke-miterlimit:10;}
	.st21{display:none;fill:none;stroke:url(#SVGID_13_);stroke-width:2;stroke-miterlimit:10;}
	.st22{display:none;opacity:0.5;fill:url(#SVGID_14_);}
	.st23{fill:url(#SVGID_15_);stroke:#2CA6E0;stroke-width:0.2;stroke-miterlimit:10;}
	.st24{fill:url(#SVGID_16_);}
	.st25{fill:url(#SVGID_17_);}
	.st26{fill:none;stroke:#FFFFFF;stroke-width:0.5;stroke-miterlimit:10;}
	.st27{fill:url(#SVGID_18_);}
	.st28{fill:url(#SVGID_19_);}
	.st29{fill:url(#SVGID_20_);}
	.st30{fill:url(#SVGID_21_);}
	.st31{fill:url(#SVGID_22_);}
	.st32{fill:none;stroke:#FFFFFF;stroke-width:0.25;stroke-miterlimit:10;}
</style>
<g class="st0">
	<g class="st1">
		<line class="st2" x1="356.33" y1="309.39" x2="356.33" y2="74"/>
		<g>
			<g>
				<path class="st3" d="M358.14,309.29c0,1-0.81,1.8-1.8,1.8s-1.8-0.81-1.8-1.8c0-1,0.81-1.8,1.8-1.8S358.14,308.29,358.14,309.29z
					"/>
				<path class="st4" d="M358.38,309.29c0-1.13-0.92-2.04-2.04-2.04c-1.13,0-2.04,0.92-2.04,2.04c0,1.13,0.92,2.04,2.04,2.04
					C357.46,311.33,358.38,310.42,358.38,309.29C358.38,308.16,358.38,310.42,358.38,309.29z M354.77,309.29
					c0-0.86,0.7-1.56,1.56-1.56s1.56,0.7,1.56,1.56c0,0.86-0.7,1.56-1.56,1.56S354.77,310.15,354.77,309.29
					C354.77,308.43,354.77,310.15,354.77,309.29z"/>
			</g>
		</g>
	</g>
</g>
<g class="st0">
	<g class="st1">
		<line class="st2" x1="346" y1="323.39" x2="346" y2="88"/>
		<g>
			<g>
				<path class="st3" d="M347.8,323.29c0,1-0.81,1.8-1.8,1.8s-1.8-0.81-1.8-1.8c0-1,0.81-1.8,1.8-1.8S347.8,322.29,347.8,323.29z"/>
				<path class="st4" d="M348.04,323.29c0-1.13-0.92-2.04-2.04-2.04s-2.04,0.92-2.04,2.04c0,1.13,0.92,2.04,2.04,2.04
					S348.04,324.42,348.04,323.29C348.04,322.16,348.04,324.42,348.04,323.29z M344.44,323.29c0-0.86,0.7-1.56,1.56-1.56
					s1.56,0.7,1.56,1.56c0,0.86-0.7,1.56-1.56,1.56S344.44,324.15,344.44,323.29C344.44,322.43,344.44,324.15,344.44,323.29z"/>
			</g>
		</g>
	</g>
</g>
<g class="st0">
	<g class="st1">
		<line class="st2" x1="412" y1="335.39" x2="412" y2="100"/>
		<g>
			<g>
				<path class="st3" d="M413.8,335.29c0,1-0.81,1.8-1.8,1.8s-1.8-0.81-1.8-1.8c0-1,0.81-1.8,1.8-1.8S413.8,334.29,413.8,335.29z"/>
				<path class="st4" d="M414.04,335.29c0-1.13-0.92-2.04-2.04-2.04s-2.04,0.92-2.04,2.04c0,1.13,0.92,2.04,2.04,2.04
					S414.04,336.42,414.04,335.29C414.04,334.16,414.04,336.42,414.04,335.29z M410.44,335.29c0-0.86,0.7-1.56,1.56-1.56
					s1.56,0.7,1.56,1.56c0,0.86-0.7,1.56-1.56,1.56S410.44,336.15,410.44,335.29C410.44,334.43,410.44,336.15,410.44,335.29z"/>
			</g>
		</g>
	</g>
</g>
<g class="st0">
	<g class="st1">
		<line class="st2" x1="371.67" y1="325.39" x2="371.67" y2="90"/>
		<g>
			<g>
				<path class="st3" d="M373.47,325.29c0,1-0.81,1.8-1.8,1.8s-1.8-0.81-1.8-1.8c0-1,0.81-1.8,1.8-1.8S373.47,324.29,373.47,325.29z
					"/>
				<path class="st4" d="M373.71,325.29c0-1.13-0.92-2.04-2.04-2.04c-1.13,0-2.04,0.92-2.04,2.04c0,1.13,0.92,2.04,2.04,2.04
					C372.79,327.33,373.71,326.42,373.71,325.29C373.71,324.16,373.71,326.42,373.71,325.29z M370.1,325.29
					c0-0.86,0.7-1.56,1.56-1.56s1.56,0.7,1.56,1.56c0,0.86-0.7,1.56-1.56,1.56S370.1,326.15,370.1,325.29
					C370.1,324.43,370.1,326.15,370.1,325.29z"/>
			</g>
		</g>
	</g>
</g>
<g class="st0">
	<g class="st1">
		<line class="st2" x1="369" y1="317.72" x2="369" y2="82.33"/>
		<g>
			<g>
				<circle class="st3" cx="369" cy="317.62" r="1.8"/>
				<path class="st4" d="M371.04,317.62c0-1.13-0.92-2.04-2.04-2.04s-2.04,0.92-2.04,2.04c0,1.13,0.92,2.04,2.04,2.04
					S371.04,318.75,371.04,317.62C371.04,316.49,371.04,318.75,371.04,317.62z M367.44,317.62c0-0.86,0.7-1.56,1.56-1.56
					s1.56,0.7,1.56,1.56s-0.7,1.56-1.56,1.56S367.44,318.49,367.44,317.62S367.44,318.49,367.44,317.62z"/>
			</g>
		</g>
	</g>
</g>
<g class="st0">
	<g class="st1">
		<line class="st2" x1="336.78" y1="312.17" x2="336.78" y2="76.78"/>
		<g>
			<g>
				<circle class="st3" cx="336.78" cy="312.07" r="1.8"/>
				<path class="st4" d="M338.82,312.07c0-1.13-0.92-2.04-2.04-2.04c-1.13,0-2.04,0.92-2.04,2.04c0,1.13,0.92,2.04,2.04,2.04
					C337.91,314.11,338.82,313.19,338.82,312.07C338.82,310.94,338.82,313.19,338.82,312.07z M335.21,312.07
					c0-0.86,0.7-1.56,1.56-1.56s1.56,0.7,1.56,1.56c0,0.86-0.7,1.56-1.56,1.56S335.21,312.93,335.21,312.07
					C335.21,311.2,335.21,312.93,335.21,312.07z"/>
			</g>
		</g>
	</g>
</g>
<g class="st0">
	<g class="st1">
		<line class="st2" x1="304.44" y1="288.84" x2="304.44" y2="53.44"/>
		<g>
			<g>
				<circle class="st3" cx="304.44" cy="288.73" r="1.8"/>
				<path class="st4" d="M306.49,288.73c0-1.13-0.92-2.04-2.04-2.04c-1.13,0-2.04,0.92-2.04,2.04c0,1.13,0.92,2.04,2.04,2.04
					C305.57,290.78,306.49,289.86,306.49,288.73C306.49,287.61,306.49,289.86,306.49,288.73z M302.88,288.73
					c0-0.86,0.7-1.56,1.56-1.56c0.86,0,1.56,0.7,1.56,1.56s-0.7,1.56-1.56,1.56C303.58,290.3,302.88,289.6,302.88,288.73
					S302.88,289.6,302.88,288.73z"/>
			</g>
		</g>
	</g>
</g>
<g class="st0">
	<g class="st1">
		<line class="st2" x1="296.11" y1="296.5" x2="296.11" y2="61.11"/>
		<g>
			<g>
				<circle class="st3" cx="296.11" cy="296.4" r="1.8"/>
				<path class="st4" d="M298.16,296.4c0-1.13-0.92-2.04-2.04-2.04s-2.04,0.92-2.04,2.04c0,1.13,0.92,2.04,2.04,2.04
					S298.16,297.53,298.16,296.4C298.16,295.27,298.16,297.53,298.16,296.4z M294.55,296.4c0-0.86,0.7-1.56,1.56-1.56
					s1.56,0.7,1.56,1.56c0,0.86-0.7,1.56-1.56,1.56S294.55,297.26,294.55,296.4C294.55,295.54,294.55,297.26,294.55,296.4z"/>
			</g>
		</g>
	</g>
</g>
<g class="st0">
	<g class="st1">
		<line class="st2" x1="275.78" y1="283.17" x2="275.78" y2="47.78"/>
		<g>
			<g>
				<circle class="st3" cx="275.78" cy="283.07" r="1.8"/>
				<path class="st4" d="M277.82,283.07c0-1.13-0.92-2.04-2.04-2.04c-1.13,0-2.04,0.92-2.04,2.04c0,1.13,0.92,2.04,2.04,2.04
					C276.91,285.11,277.82,284.19,277.82,283.07C277.82,281.94,277.82,284.19,277.82,283.07z M274.21,283.07
					c0-0.86,0.7-1.56,1.56-1.56s1.56,0.7,1.56,1.56c0,0.86-0.7,1.56-1.56,1.56S274.21,283.93,274.21,283.07
					C274.21,282.2,274.21,283.93,274.21,283.07z"/>
			</g>
		</g>
	</g>
</g>
<g class="st0">
	<g class="st1">
		<line class="st2" x1="246.78" y1="276.5" x2="246.78" y2="41.11"/>
		<g>
			<g>
				<circle class="st3" cx="246.78" cy="276.4" r="1.8"/>
				<path class="st4" d="M248.82,276.4c0-1.13-0.92-2.04-2.04-2.04c-1.13,0-2.04,0.92-2.04,2.04c0,1.13,0.92,2.04,2.04,2.04
					C247.91,278.44,248.82,277.53,248.82,276.4C248.82,275.27,248.82,277.53,248.82,276.4z M245.21,276.4c0-0.86,0.7-1.56,1.56-1.56
					s1.56,0.7,1.56,1.56c0,0.86-0.7,1.56-1.56,1.56S245.21,277.26,245.21,276.4C245.21,275.54,245.21,277.26,245.21,276.4z"/>
			</g>
		</g>
	</g>
</g>
<g class="st0">
	<g class="st1">
		<line class="st2" x1="227.11" y1="267.17" x2="227.11" y2="31.78"/>
		<g>
			<g>
				<circle class="st3" cx="227.11" cy="267.07" r="1.8"/>
				<path class="st4" d="M229.16,267.07c0-1.13-0.92-2.04-2.04-2.04s-2.04,0.92-2.04,2.04c0,1.13,0.92,2.04,2.04,2.04
					S229.16,268.19,229.16,267.07C229.16,265.94,229.16,268.19,229.16,267.07z M225.55,267.07c0-0.86,0.7-1.56,1.56-1.56
					s1.56,0.7,1.56,1.56c0,0.86-0.7,1.56-1.56,1.56S225.55,267.93,225.55,267.07C225.55,266.2,225.55,267.93,225.55,267.07z"/>
			</g>
		</g>
	</g>
</g>
<g class="st0">
	<g class="st1">
		<line class="st2" x1="173.78" y1="256.17" x2="173.78" y2="20.78"/>
		<g>
			<g>
				<circle class="st3" cx="173.78" cy="256.07" r="1.8"/>
				<path class="st4" d="M175.82,256.07c0-1.13-0.92-2.04-2.04-2.04c-1.13,0-2.04,0.92-2.04,2.04s0.92,2.04,2.04,2.04
					C174.91,258.11,175.82,257.19,175.82,256.07S175.82,257.19,175.82,256.07z M172.21,256.07c0-0.86,0.7-1.56,1.56-1.56
					s1.56,0.7,1.56,1.56c0,0.86-0.7,1.56-1.56,1.56S172.21,256.93,172.21,256.07C172.21,255.2,172.21,256.93,172.21,256.07z"/>
			</g>
		</g>
	</g>
</g>
<g class="st0">
	<g class="st1">
		<line class="st2" x1="159.44" y1="244.84" x2="159.44" y2="9.44"/>
		<g>
			<g>
				<circle class="st3" cx="159.44" cy="244.73" r="1.8"/>
				<path class="st4" d="M161.49,244.73c0-1.13-0.92-2.04-2.04-2.04c-1.13,0-2.04,0.92-2.04,2.04c0,1.13,0.92,2.04,2.04,2.04
					C160.57,246.78,161.49,245.86,161.49,244.73C161.49,243.61,161.49,245.86,161.49,244.73z M157.88,244.73
					c0-0.86,0.7-1.56,1.56-1.56c0.86,0,1.56,0.7,1.56,1.56c0,0.86-0.7,1.56-1.56,1.56C158.58,246.3,157.88,245.6,157.88,244.73
					C157.88,243.87,157.88,245.6,157.88,244.73z"/>
			</g>
		</g>
	</g>
</g>
<g class="st0">
	<g class="st1">
		<line class="st2" x1="162.44" y1="252.5" x2="162.44" y2="17.11"/>
		<g>
			<g>
				<circle class="st3" cx="162.44" cy="252.4" r="1.8"/>
				<path class="st4" d="M164.49,252.4c0-1.13-0.92-2.04-2.04-2.04c-1.13,0-2.04,0.92-2.04,2.04c0,1.13,0.92,2.04,2.04,2.04
					C163.57,254.44,164.49,253.53,164.49,252.4C164.49,251.27,164.49,253.53,164.49,252.4z M160.88,252.4c0-0.86,0.7-1.56,1.56-1.56
					c0.86,0,1.56,0.7,1.56,1.56c0,0.86-0.7,1.56-1.56,1.56C161.58,253.96,160.88,253.26,160.88,252.4
					C160.88,251.54,160.88,253.26,160.88,252.4z"/>
			</g>
		</g>
	</g>
</g>
<g class="st0">
	<g class="st1">
		<line class="st2" x1="137.44" y1="257.84" x2="137.44" y2="22.44"/>
		<g>
			<g>
				<circle class="st3" cx="137.44" cy="257.73" r="1.8"/>
				<path class="st4" d="M139.49,257.73c0-1.13-0.92-2.04-2.04-2.04c-1.13,0-2.04,0.92-2.04,2.04c0,1.13,0.92,2.04,2.04,2.04
					C138.57,259.78,139.49,258.86,139.49,257.73C139.49,256.61,139.49,258.86,139.49,257.73z M135.88,257.73
					c0-0.86,0.7-1.56,1.56-1.56c0.86,0,1.56,0.7,1.56,1.56c0,0.86-0.7,1.56-1.56,1.56C136.58,259.3,135.88,258.6,135.88,257.73
					C135.88,256.87,135.88,258.6,135.88,257.73z"/>
			</g>
		</g>
	</g>
</g>
<g class="st0">
	<g class="st1">
		<line class="st2" x1="127.11" y1="236.17" x2="127.11" y2="0.78"/>
		<g>
			<g>
				<circle class="st3" cx="127.11" cy="236.07" r="1.8"/>
				<path class="st4" d="M129.16,236.07c0-1.13-0.92-2.04-2.04-2.04s-2.04,0.92-2.04,2.04s0.92,2.04,2.04,2.04
					S129.16,237.19,129.16,236.07S129.16,237.19,129.16,236.07z M125.55,236.07c0-0.86,0.7-1.56,1.56-1.56s1.56,0.7,1.56,1.56
					c0,0.86-0.7,1.56-1.56,1.56S125.55,236.93,125.55,236.07C125.55,235.2,125.55,236.93,125.55,236.07z"/>
			</g>
		</g>
	</g>
</g>
<g class="st0">
	<g class="st1">
		<line class="st2" x1="123.11" y1="222.17" x2="123.11" y2="-13.22"/>
		<g>
			<g>
				<circle class="st3" cx="123.11" cy="222.07" r="1.8"/>
				<path class="st4" d="M125.16,222.07c0-1.13-0.92-2.04-2.04-2.04s-2.04,0.92-2.04,2.04s0.92,2.04,2.04,2.04
					S125.16,223.19,125.16,222.07S125.16,223.19,125.16,222.07z M121.55,222.07c0-0.86,0.7-1.56,1.56-1.56s1.56,0.7,1.56,1.56
					c0,0.86-0.7,1.56-1.56,1.56S121.55,222.93,121.55,222.07C121.55,221.2,121.55,222.93,121.55,222.07z"/>
			</g>
		</g>
	</g>
</g>
<g class="st0">
	<g class="st1">
		<line class="st2" x1="106.44" y1="249.5" x2="106.44" y2="14.11"/>
		<g>
			<g>
				<circle class="st3" cx="106.44" cy="249.4" r="1.8"/>
				<path class="st4" d="M108.49,249.4c0-1.13-0.92-2.04-2.04-2.04c-1.13,0-2.04,0.92-2.04,2.04c0,1.13,0.92,2.04,2.04,2.04
					C107.57,251.44,108.49,250.53,108.49,249.4C108.49,248.27,108.49,250.53,108.49,249.4z M104.88,249.4c0-0.86,0.7-1.56,1.56-1.56
					c0.86,0,1.56,0.7,1.56,1.56c0,0.86-0.7,1.56-1.56,1.56C105.58,250.96,104.88,250.26,104.88,249.4
					C104.88,248.54,104.88,250.26,104.88,249.4z"/>
			</g>
		</g>
	</g>
</g>
<g class="st0">
	<g class="st1">
		<line class="st2" x1="89.11" y1="248.5" x2="89.11" y2="13.11"/>
		<g>
			<g>
				<circle class="st3" cx="89.11" cy="248.4" r="1.8"/>
				<path class="st4" d="M91.16,248.4c0-1.13-0.92-2.04-2.04-2.04s-2.04,0.92-2.04,2.04c0,1.13,0.92,2.04,2.04,2.04
					S91.16,249.53,91.16,248.4C91.16,247.27,91.16,249.53,91.16,248.4z M87.55,248.4c0-0.86,0.7-1.56,1.56-1.56s1.56,0.7,1.56,1.56
					c0,0.86-0.7,1.56-1.56,1.56S87.55,249.26,87.55,248.4C87.55,247.54,87.55,249.26,87.55,248.4z"/>
			</g>
		</g>
	</g>
</g>
<g class="st0">
	<g class="st1">
		<line class="st2" x1="85.11" y1="241.17" x2="85.11" y2="5.78"/>
		<g>
			<g>
				<circle class="st3" cx="85.11" cy="241.07" r="1.8"/>
				<path class="st4" d="M87.16,241.07c0-1.13-0.92-2.04-2.04-2.04s-2.04,0.92-2.04,2.04s0.92,2.04,2.04,2.04
					S87.16,242.19,87.16,241.07S87.16,242.19,87.16,241.07z M83.55,241.07c0-0.86,0.7-1.56,1.56-1.56s1.56,0.7,1.56,1.56
					c0,0.86-0.7,1.56-1.56,1.56S83.55,241.93,83.55,241.07C83.55,240.2,83.55,241.93,83.55,241.07z"/>
			</g>
		</g>
	</g>
</g>
<g class="st0">
	<g class="st1">
		<line class="st2" x1="78.78" y1="244.5" x2="78.78" y2="9.11"/>
		<g>
			<g>
				<circle class="st3" cx="78.78" cy="244.4" r="1.8"/>
				<path class="st4" d="M80.82,244.4c0-1.13-0.92-2.04-2.04-2.04c-1.13,0-2.04,0.92-2.04,2.04c0,1.13,0.92,2.04,2.04,2.04
					C79.91,246.44,80.82,245.53,80.82,244.4C80.82,243.27,80.82,245.53,80.82,244.4z M77.21,244.4c0-0.86,0.7-1.56,1.56-1.56
					s1.56,0.7,1.56,1.56c0,0.86-0.7,1.56-1.56,1.56S77.21,245.26,77.21,244.4C77.21,243.54,77.21,245.26,77.21,244.4z"/>
			</g>
		</g>
	</g>
</g>
<g class="st0">
	<g class="st1">
		<line class="st2" x1="72.78" y1="248.17" x2="72.78" y2="12.78"/>
		<g>
			<g>
				<circle class="st3" cx="72.78" cy="248.07" r="1.8"/>
				<path class="st4" d="M74.82,248.07c0-1.13-0.92-2.04-2.04-2.04c-1.13,0-2.04,0.92-2.04,2.04s0.92,2.04,2.04,2.04
					C73.91,250.11,74.82,249.19,74.82,248.07S74.82,249.19,74.82,248.07z M71.21,248.07c0-0.86,0.7-1.56,1.56-1.56
					s1.56,0.7,1.56,1.56c0,0.86-0.7,1.56-1.56,1.56S71.21,248.93,71.21,248.07C71.21,247.2,71.21,248.93,71.21,248.07z"/>
			</g>
		</g>
	</g>
</g>
<g class="st0">
	<g class="st1">
		<line class="st2" x1="80.78" y1="185.84" x2="80.78" y2="-49.56"/>
		<g>
			<g>
				<circle class="st3" cx="80.78" cy="185.73" r="1.8"/>
				<path class="st4" d="M82.82,185.73c0-1.13-0.92-2.04-2.04-2.04c-1.13,0-2.04,0.92-2.04,2.04c0,1.13,0.92,2.04,2.04,2.04
					C81.91,187.78,82.82,186.86,82.82,185.73C82.82,184.61,82.82,186.86,82.82,185.73z M79.21,185.73c0-0.86,0.7-1.56,1.56-1.56
					s1.56,0.7,1.56,1.56c0,0.86-0.7,1.56-1.56,1.56S79.21,186.6,79.21,185.73C79.21,184.87,79.21,186.6,79.21,185.73z"/>
			</g>
		</g>
	</g>
</g>
<g class="st0">
	<g class="st1">
		<line class="st2" x1="95.11" y1="187.84" x2="95.11" y2="-47.56"/>
		<g>
			<g>
				<circle class="st3" cx="95.11" cy="187.73" r="1.8"/>
				<path class="st4" d="M97.16,187.73c0-1.13-0.92-2.04-2.04-2.04s-2.04,0.92-2.04,2.04c0,1.13,0.92,2.04,2.04,2.04
					S97.16,188.86,97.16,187.73C97.16,186.61,97.16,188.86,97.16,187.73z M93.55,187.73c0-0.86,0.7-1.56,1.56-1.56
					s1.56,0.7,1.56,1.56c0,0.86-0.7,1.56-1.56,1.56S93.55,188.6,93.55,187.73C93.55,186.87,93.55,188.6,93.55,187.73z"/>
			</g>
		</g>
	</g>
</g>
<g class="st0">
	<g class="st1">
		<line class="st2" x1="109.78" y1="200.5" x2="109.78" y2="-23.67"/>
		<g>
			<g>
				<circle class="st3" cx="109.78" cy="200.4" r="1.8"/>
				<path class="st4" d="M111.82,200.4c0-1.13-0.92-2.04-2.04-2.04c-1.13,0-2.04,0.92-2.04,2.04c0,1.13,0.92,2.04,2.04,2.04
					C110.91,202.44,111.82,201.53,111.82,200.4C111.82,199.27,111.82,201.53,111.82,200.4z M108.21,200.4c0-0.86,0.7-1.56,1.56-1.56
					s1.56,0.7,1.56,1.56c0,0.86-0.7,1.56-1.56,1.56S108.21,201.26,108.21,200.4C108.21,199.54,108.21,201.26,108.21,200.4z"/>
			</g>
		</g>
	</g>
</g>
<g class="st0">
	<g class="st1">
		<line class="st2" x1="109.44" y1="210.17" x2="109.44" y2="-25.22"/>
		<g>
			<g>
				<circle class="st3" cx="109.44" cy="210.07" r="1.8"/>
				<path class="st4" d="M111.49,210.07c0-1.13-0.92-2.04-2.04-2.04c-1.13,0-2.04,0.92-2.04,2.04s0.92,2.04,2.04,2.04
					C110.57,212.11,111.49,211.19,111.49,210.07S111.49,211.19,111.49,210.07z M107.88,210.07c0-0.86,0.7-1.56,1.56-1.56
					c0.86,0,1.56,0.7,1.56,1.56c0,0.86-0.7,1.56-1.56,1.56C108.58,211.63,107.88,210.93,107.88,210.07
					C107.88,209.2,107.88,210.93,107.88,210.07z"/>
			</g>
		</g>
	</g>
</g>
<g class="st0">
	<g class="st1">
		<line class="st2" x1="109.33" y1="219.68" x2="109.33" y2="-15.71"/>
		<g>
			<g>
				<path class="st3" d="M111.14,219.58c0,1-0.81,1.8-1.8,1.8s-1.8-0.81-1.8-1.8c0-1,0.81-1.8,1.8-1.8S111.14,218.58,111.14,219.58z
					"/>
				<path class="st4" d="M111.38,219.58c0-1.13-0.92-2.04-2.04-2.04c-1.13,0-2.04,0.92-2.04,2.04c0,1.13,0.92,2.04,2.04,2.04
					C110.46,221.62,111.38,220.71,111.38,219.58C111.38,218.45,111.38,220.71,111.38,219.58z M107.77,219.58
					c0-0.86,0.7-1.56,1.56-1.56s1.56,0.7,1.56,1.56c0,0.86-0.7,1.56-1.56,1.56S107.77,220.44,107.77,219.58
					C107.77,218.72,107.77,220.44,107.77,219.58z"/>
			</g>
		</g>
	</g>
</g>
<g class="st0">
	<g class="st1">
		<rect x="80.6" y="-49.43" class="st5" width="24.69" height="9.75"/>
		<g>
			<text transform="matrix(1 0 0 1 83.8534 -41.1621)" class="st6 st7 st8">北京</text>
		</g>
	</g>
	<g class="st1">
		<rect x="94.97" y="-33.47" class="st5" width="24.69" height="9.75"/>
		<g>
			<text transform="matrix(1 0 0 1 98.223 -25.2024)" class="st6 st7 st8">通州</text>
		</g>
	</g>
	<g class="st1">
		<rect x="122.86" y="-13.06" class="st5" width="24.69" height="9.75"/>
		<g>
			<text transform="matrix(1 0 0 1 126.1082 -4.8008)" class="st6 st7 st8">天津</text>
		</g>
	</g>
	<g class="st1">
		<rect x="106.17" y="14.02" class="st5" width="24.69" height="9.75"/>
		<g>
			<text transform="matrix(1 0 0 1 109.4251 22.2848)" class="st6 st7 st8">沧州</text>
		</g>
	</g>
	<g class="st1">
		<rect x="88.84" y="10.66" class="st5" width="24.69" height="9.75"/>
		<g>
			<text transform="matrix(1 0 0 1 92.0892 18.9242)" class="st6 st7 st8">衡水</text>
		</g>
	</g>
	<g class="st1">
		<rect x="127.01" y="0.75" class="st5" width="24.69" height="9.75"/>
		<g>
			<text transform="matrix(1 0 0 1 130.2635 9.012)" class="st6 st7 st8">德州</text>
		</g>
	</g>
	<g class="st1">
		<rect x="137.32" y="22.29" class="st5" width="24.69" height="9.75"/>
		<g>
			<text transform="matrix(1 0 0 1 140.5716 30.5536)" class="st6 st7 st8">聊城</text>
		</g>
	</g>
	<g class="st1">
		<rect x="162.29" y="17.06" class="st5" width="24.69" height="9.75"/>
		<g>
			<text transform="matrix(1 0 0 1 165.5428 25.3271)" class="st6 st7 st8">泰安</text>
		</g>
	</g>
	<g class="st1">
		<rect x="159.26" y="6.66" class="st5" width="24.69" height="9.75"/>
		<g>
			<text transform="matrix(1 0 0 1 162.5113 14.9267)" class="st6 st7 st8">济宁</text>
		</g>
	</g>
	<g class="st1">
		<rect x="173.87" y="25.7" class="st5" width="24.69" height="9.75"/>
		<g>
			<text transform="matrix(1 0 0 1 177.1173 33.9686)" class="st6 st7 st8">枣庄</text>
		</g>
	</g>
	<g class="st1">
		<rect x="226.84" y="30.71" class="st5" width="24.69" height="9.75"/>
		<g>
			<text transform="matrix(1 0 0 1 230.0916 38.974)" class="st6 st7 st8">徐州</text>
		</g>
	</g>
	<g class="st1">
		<rect x="246.32" y="40.34" class="st5" width="24.69" height="9.75"/>
		<g>
			<text transform="matrix(1 0 0 1 249.5716 48.6086)" class="st6 st7 st8">淮安</text>
		</g>
	</g>
	<g class="st1">
		<rect x="275.65" y="47.51" class="st5" width="24.69" height="9.75"/>
		<g>
			<text transform="matrix(1 0 0 1 278.8993 55.7727)" class="st6 st7 st8">扬州</text>
		</g>
	</g>
	<g class="st1">
		<rect x="304.16" y="53.33" class="st5" width="24.69" height="9.75"/>
		<g>
			<text transform="matrix(1 0 0 1 307.4134 61.5903)" class="st6 st7 st8">无锡</text>
		</g>
	</g>
	<g class="st1">
		<rect x="295.74" y="66" class="st5" width="24.69" height="9.75"/>
		<g>
			<text transform="matrix(1 0 0 1 298.9896 74.2606)" class="st6 st7 st8">镇江</text>
		</g>
	</g>
	<g class="st1">
		<rect x="336.3" y="74.98" class="st5" width="24.69" height="9.75"/>
		<g>
			<text transform="matrix(1 0 0 1 339.5509 83.24)" class="st6 st7 st8">苏州</text>
		</g>
	</g>
	<g class="st1">
		<rect x="345.71" y="88" class="st5" width="24.69" height="9.75"/>
		<g>
			<text transform="matrix(1 0 0 1 348.9581 96.2606)" class="st6 st7 st8">湖州</text>
		</g>
	</g>
	<g class="st1">
		<rect x="356.34" y="73.91" class="st5" width="24.69" height="9.75"/>
		<g>
			<text transform="matrix(1 0 0 1 359.5897 82.1758)" class="st6 st7 st8">嘉兴</text>
		</g>
	</g>
	<g class="st1">
		<rect x="368.89" y="78.09" class="st5" width="24.69" height="9.75"/>
		<g>
			<text transform="matrix(1 0 0 1 372.1385 86.3555)" class="st6 st7 st8">绍兴</text>
		</g>
	</g>
	<g class="st1">
		<rect x="371.6" y="89.78" class="st5" width="24.69" height="9.75"/>
		<g>
			<text transform="matrix(1 0 0 1 374.8541 98.0471)" class="st6 st7 st8">杭州</text>
		</g>
	</g>
	<g class="st1">
		<rect x="411.86" y="99.78" class="st5" width="24.69" height="9.75"/>
		<g>
			<text transform="matrix(1 0 0 1 415.1102 108.0426)" class="st6 st7 st8">宁波</text>
		</g>
	</g>
	<g class="st1">
		<rect x="158.97" y="38.89" class="st5" width="24.69" height="9.75"/>
		<g>
			<text transform="matrix(1 0 0 1 162.2215 47.1536)" class="st6 st7 st8">新乡</text>
		</g>
	</g>
	<g class="st1">
		<rect x="174.08" y="53.56" class="st5" width="24.69" height="9.75"/>
		<g>
			<text transform="matrix(1 0 0 1 177.3324 61.8203)" class="st6 st7 st8">焦作</text>
		</g>
	</g>
	<g class="st1">
		<rect x="95.41" y="-16.67" class="st5" width="24.69" height="9.75"/>
		<g>
			<text transform="matrix(1 0 0 1 98.6659 -8.4019)" class="st6 st7 st8">西安</text>
		</g>
	</g>
	<g class="st1">
		<rect x="137.64" y="37.9" class="st5" width="24.69" height="9.75"/>
		<g>
			<text transform="matrix(1 0 0 1 140.888 46.1641)" class="st6 st7 st8">郑州</text>
		</g>
	</g>
	<g class="st1">
		<rect x="109.19" y="27.39" class="st5" width="24.69" height="9.75"/>
		<g>
			<text transform="matrix(1 0 0 1 112.4437 35.6523)" class="st6 st7 st8">商丘</text>
		</g>
	</g>
	<g class="st1">
		<rect x="137.64" y="52.57" class="st5" width="24.69" height="9.75"/>
		<g>
			<text transform="matrix(1 0 0 1 140.888 60.8307)" class="st6 st7 st8">宿州</text>
		</g>
	</g>
	<g class="st1">
		<rect x="106.08" y="38.34" class="st5" width="24.69" height="9.75"/>
		<g>
			<text transform="matrix(1 0 0 1 109.3326 46.6084)" class="st6 st7 st8">洛阳</text>
		</g>
	</g>
</g>
<linearGradient id="SVGID_1_" gradientUnits="userSpaceOnUse" x1="405.5" y1="213.9445" x2="405.5" y2="163.6111">
	<stop  offset="0" style="stop-color:#FFFFFF;stop-opacity:0"/>
	<stop  offset="1" style="stop-color:#C8BB9B"/>
</linearGradient>
<path class="st9" d="M424.19,155.11v54.17c0,0-28.17-4.89-37.39-2.44v-56.44C386.81,150.39,403.81,150.72,424.19,155.11z"/>
<linearGradient id="SVGID_2_" gradientUnits="userSpaceOnUse" x1="279.2917" y1="174.5062" x2="279.2917" y2="118.7123">
	<stop  offset="0" style="stop-color:#FFFFFF;stop-opacity:0"/>
	<stop  offset="1" style="stop-color:#C8BB9B"/>
</linearGradient>
<path class="st10" d="M303.78,113.22l-0.11,56.11c0,0-42.89-7.22-48.86-8.83v-56.44C254.81,104.06,283.39,108.83,303.78,113.22z"/>
<linearGradient id="SVGID_3_" gradientUnits="userSpaceOnUse" x1="429.8056" y1="209.3132" x2="429.8056" y2="149.1108">
	<stop  offset="0" style="stop-color:#FFFFFF;stop-opacity:0"/>
	<stop  offset="0.9353" style="stop-color:#D8803B"/>
</linearGradient>
<path class="st11" d="M424.31,155.11v50c0,0,9.39-0.22,11,0.22v-48.56C435.31,156.78,425.73,155.5,424.31,155.11z"/>
<linearGradient id="SVGID_4_" gradientUnits="userSpaceOnUse" x1="404.659" y1="154.7585" x2="404.659" y2="148.5876">
	<stop  offset="0" style="stop-color:#FFFFFF;stop-opacity:0"/>
	<stop  offset="1" style="stop-color:#133572"/>
</linearGradient>
<path class="st12" d="M386.78,149.67c0,0,10-1,35.67,4.11"/>
<linearGradient id="SVGID_5_" gradientUnits="userSpaceOnUse" x1="429.1111" y1="157.0924" x2="429.1111" y2="152.9076">
	<stop  offset="0" style="stop-color:#FFFFFF;stop-opacity:0"/>
	<stop  offset="1" style="stop-color:#133572"/>
</linearGradient>
<line class="st13" x1="423.44" y1="153.89" x2="434.78" y2="156.11"/>
<linearGradient id="SVGID_6_" gradientUnits="userSpaceOnUse" x1="354.8979" y1="151.957" x2="354.8979" y2="132.2347">
	<stop  offset="0" style="stop-color:#84CDDD"/>
	<stop  offset="1" style="stop-color:#133572"/>
</linearGradient>
<path class="st14" d="M335.83,133.17c0,0-3,1.17,0.67,4.67s-6.94,0.41-9.28,2.06c-2.34,1.65-4.22,2.22-1,3.67
	c3.22,1.44,14,1.11,17.78,2.67c3.78,1.56,11.55,3.44,23.83,4.53c8.32,0.74,15.49-0.68,18.28-1.19"/>
<linearGradient id="SVGID_7_" gradientUnits="userSpaceOnUse" x1="305.0195" y1="122.2973" x2="347.3619" y2="122.2973">
	<stop  offset="0" style="stop-color:#133572"/>
	<stop  offset="1" style="stop-color:#84CDDD"/>
</linearGradient>
<path class="st15" d="M305.33,112.67c0,0,13.11,4.33,22.56,5.67c7,1.44,3.22,4.78,11.22,7.78s8,3.33,6.44,4
	c-1.56,0.67-8.78,1.56-8.89,2.67"/>
<linearGradient id="SVGID_8_" gradientUnits="userSpaceOnUse" x1="254.0038" y1="107.7614" x2="304.5798" y2="107.7614">
	<stop  offset="0" style="stop-color:#133572"/>
	<stop  offset="1" style="stop-color:#84CDDD"/>
</linearGradient>
<path class="st16" d="M254.78,102.89c0,0,1,1.22,14,2.89c13,1.67,30.22,4.56,35.44,6.56"/>
<linearGradient id="SVGID_9_" gradientUnits="userSpaceOnUse" x1="210.0805" y1="143.7266" x2="210.0805" y2="89.1518">
	<stop  offset="0" style="stop-color:#FFFFFF;stop-opacity:0"/>
	<stop  offset="1" style="stop-color:#C8BB9B"/>
</linearGradient>
<path class="st17" d="M195.89,75.33v57.44c0,0,3.56-1.67,6.56-0.78s14.78,4.33,16,4.89c1.22,0.56,5.78,1.78,5.78,1.78v-57
	c0.68-0.02-5.69-2.46-10.72-3.58C210.36,77.39,202.11,73.42,195.89,75.33z"/>
<linearGradient id="SVGID_10_" gradientUnits="userSpaceOnUse" x1="29.4861" y1="113.4318" x2="30.4861" y2="76.5984">
	<stop  offset="0" style="stop-color:#FFFFFF;stop-opacity:0"/>
	<stop  offset="1" style="stop-color:#C8BB9B"/>
</linearGradient>
<path class="st18" d="M46.44,65.67v57.89c0,0-12.11-0.22-15.03-0.22c-2.92,0-5.25,0.25-5.92,0s-0.92-0.83-2.08-1
	c-1.17-0.17-3.08,0.17-4.25,0.5c-1.17,0.33-3.91,1.07-4.67,1.5c-0.76,0.43-1,0.17-1,0.17v-57c0,0,2-0.21,3.42-0.75
	c1.41-0.54,5.58-2.17,6.92-2.17c1.33,0,1.75,0.5,3.67,1.08c1.92,0.58,9.33,0.17,12.25,0.17S46.44,65.67,46.44,65.67z"/>
<linearGradient id="SVGID_11_" gradientUnits="userSpaceOnUse" x1="223.5248" y1="92.3394" x2="255.3204" y2="92.3394">
	<stop  offset="0" style="stop-color:#133572"/>
	<stop  offset="1" style="stop-color:#84CDDD"/>
</linearGradient>
<path class="st19" d="M254.78,102.89c0,0-6.28-4.06-7.94-4.06c-1.67,0-3,0.5-5.67-1c-2.67-1.5-4.14-2.13-2.67-3.17s2-1,0.33-2.17
	c-1.67-1.17-6.83-4.17-8.67-5.5c-1.83-1.33-5.94-5.33-5.94-5.33"/>
<linearGradient id="SVGID_12_" gradientUnits="userSpaceOnUse" x1="129.6667" y1="71.8159" x2="224.2497" y2="71.8159">
	<stop  offset="0" style="stop-color:#133572"/>
	<stop  offset="1" style="stop-color:#84CDDD"/>
</linearGradient>
<path class="st20" d="M223.94,81.67c0,0-7.28-2.33-10.44-3.58c-3.17-1.25-7.17-2.42-10.33-2.92c-3.17-0.5-4.83,0.33-8.67-0.33
	c-3.83-0.67-3.5-1.67-9.5-2c-6-0.33-9.67-0.79-12.17-1.67c-2.5-0.87-4.33-1.83-7.5-2c-3.17-0.17-3.36,0.32-6.83-1.5
	c-3.47-1.82-5-2.83-9-3.67c-4-0.83-11.83-2.5-15.33-1.83c-3.5,0.67-4.5,0.67-4.5,0.67"/>
<linearGradient id="SVGID_13_" gradientUnits="userSpaceOnUse" x1="67.0369" y1="49.5423" x2="129.5936" y2="49.5423">
	<stop  offset="0" style="stop-color:#133572"/>
	<stop  offset="1" style="stop-color:#84CDDD"/>
</linearGradient>
<path class="st21" d="M129.22,62c0,0-3.89-1.56-8.22-2.44c-4.33-0.89-5.67-1.89-8.33-2.11c-2.67-0.22-5.56,0.78-6.78-0.67
	c-1.22-1.44-1.78-2-3.11-2.56c-1.33-0.56-1.22-1.22-3-1.11s-2.11,1.89-4.33,0.11c-2.22-1.78-3.89-2.11-5.56-3.44
	c-1.67-1.33-2.02-2.59-3.11-2.78c-1.09-0.19-1.56-0.11-3.22-0.33c-1.67-0.22-2.89,0.67-4.22-1.67c-1.33-2.33-2.32-3.65-3.11-4
	s-1-2.22-3.33-2.56c-2.33-0.33-5.56-1.33-5.56-1.33"/>
<linearGradient id="SVGID_14_" gradientUnits="userSpaceOnUse" x1="119.75" y1="141.783" x2="119.75" y2="84.8018">
	<stop  offset="0" style="stop-color:#FFFFFF;stop-opacity:0"/>
	<stop  offset="1" style="stop-color:#C8BB9B"/>
</linearGradient>
<path class="st22" d="M78.33,69.83V127c0,0,17.17,2.83,23.67,4.5s12.5,2.5,15.67,3c3.17,0.5,10.83,1.67,13.67,1.67
	c2.83,0,9.74-0.87,13.67-0.33c3.92,0.53,16.17,0.67,16.17,0.67V78.67c0,0-10.83,0.11-23.39-0.67c-12.56-0.78-16.56-0.44-25.67-2.78
	c-9.11-2.33-19.98-3.84-23.67-4.33C84.75,70.39,78.33,69.83,78.33,69.83z"/>
<g>
	<linearGradient id="SVGID_15_" gradientUnits="userSpaceOnUse" x1="73.3868" y1="38.7477" x2="75.0535" y2="7.581">
		<stop  offset="0" style="stop-color:#FFFFFF;stop-opacity:0"/>
		<stop  offset="1" style="stop-color:#2CA6E0"/>
	</linearGradient>
	<path class="st23" d="M83.28,10.28c1.06,1.11,2.08,1.48,1.27,2.36c-0.8,0.89-1.55,1.24-0.84,1.7c0.72,0.46,3.35,0.96,2.56,2.55
		c-0.8,1.6-4.93,2.68-5.47,3.66c-0.55,0.98-0.65,3.28-0.85,3.8c-0.2,0.53-2.68,2.54-2.64,3.33c0.05,0.8,2.41,1.09-0.89,1.72
		c-3.27,0.62-4.69,0.51-5.18,1.41c-0.48,0.91-0.75,1.79-1.53,3.29c-0.79,1.5-1.89,2.31-2.97,3.17c-1.06,0.83-2.53,0.98-4.08,1.88
		V1.55c0,0,0.9,0.32,2.51,0.34c1.62,0.01,4.48-0.56,6.33-0.8c1.86-0.24,3.07-0.04,3.89,0.45c0.83,0.5,1.96-0.1,3.06,0.05
		c1.1,0.15,4.2,2.04,4.98,2.41c0.78,0.38-0.16,0.76,1.76,1.5c1.4,0.54,2.37,0.62,2.63,0.82v0.32c-0.41,0.54-2.36,0.62-3.75,1.27
		C82.69,8.56,82.22,9.18,83.28,10.28z"/>
	<linearGradient id="SVGID_16_" gradientUnits="userSpaceOnUse" x1="247.3521" y1="233.3531" x2="250.6855" y2="128.6865">
		<stop  offset="0" style="stop-color:#FFFFFF;stop-opacity:0"/>
		<stop  offset="1" style="stop-color:#2CA6E0"/>
	</linearGradient>
	<path class="st24" d="M66.7,37.44c0,0,5.92,0.71,6.43,1.04c0.51,0.34,1.03,1.46,2.3,2.16c1.27,0.71,3.1,2.8,3.1,2.8
		s0.84,1.27,0.86,1.81c0.02,0.54,1.36,1.1,2.84,1.41c1.49,0.32,2.75,0.65,3.47,0.63c0.72-0.02,1.1-0.25,1.6,0.5
		c0.49,0.75,1.79,0.86,2.32,1.19c0.54,0.33,1.15,0.55,1.87,1.24c0.73,0.7,1.9,0.78,2.93,1.55c1.03,0.78,1.15,1.01,1.65,1.5
		c0.51,0.49,1.66,0.49,2.62,0.11c0.96-0.38,1.95-0.22,2.37,0.33c0.42,0.55,2.14,0.6,3.1,1.17c0.96,0.57,0.58,0.84,0.99,1.61
		c0.41,0.77,1.07,1.02,3.88,1.04c2.84,0.03,2.45-0.19,5.38,0.7c2.97,0.9,5.8,1.26,6.47,1.47c0.68,0.21,3.45,0.63,6.13,1.6
		c2.72,0.97,2.65,1.35,5.14,1.18c2.51-0.17,6.87-0.96,9.61-0.61c2.77,0.35,3.22,0.6,4.78,1.15c1.57,0.56,3.94,1.4,6.12,2.15
		c2.2,0.76,3.8,0.83,5.09,1.59c1.3,0.77,0.5,0.99,2.63,1.83c2.16,0.85,5.44,0.49,6.98,0.87c1.55,0.38,2.18,0.58,2.8,1.24
		c0.62,0.67,3.11,1.42,6.63,1.71c3.55,0.29,6.32-0.09,9.66,0.53c3.38,0.62,4.73,1.29,5.96,1.78c1.24,0.49,3.07,0.84,4.38,0.47
		c1.31-0.37,2.33-0.67,4.75-0.53c2.43,0.13,6.03,1.28,10.15,2.81c4.18,1.55,9.31,2.57,11.74,3.72c2.46,1.16,2.81,2.07,4.16,3.01
		c1.35,0.95,4.53,4.14,7.52,5.9c3.03,1.77,5.63,2.27,4.87,3.53c-0.76,1.26-1.93,0.8-1.1,1.83c0.84,1.03,1.71,1.37,0.95,1.66
		c-0.76,0.29,1.72,0.39,3.63,1.49c1.92,1.11,2.94-0.11,4.82,0.92c1.9,1.05,2.69,1.76,5.14,2.96c2.47,1.21,0.67,1.3,6.33,2.06
		c5.75,0.77,25.89,3.99,34.91,5.67c9.26,1.73,13.33,3.8,19.26,5.03c6.03,1.25,6.5,1.98,10.18,2.5c3.72,0.52,4.14,0.44,6.62,1.96
		c2.5,1.52,4.61,3.14,5.7,4.5c1.1,1.37,3.68,2.18,5.5,2.98c1.83,0.81,5.07,1.99,4.02,3c-1.05,1.02-10.21,2.61-10.91,3.72
		c-0.7,1.1-0.11,2.25,0.74,3.14c0.86,0.9,2.6,1.91-0.63,2.25c-3.21,0.33-6.73,0.05-8.03,1.05c-1.3,1-3.09,0.94-2.26,1.84
		c0.83,0.9-0.72,1.37,5.28,2.47c6.09,1.12,9.08,1.06,11.83,1.25c2.76,0.2,4.02,1.24,7.36,2.28c3.37,1.05,6.31,1.63,10.19,2.07
		c3.92,0.45,0.93,0.13,7.95,0.43c7.13,0.31,6.46,0.18,11.63-0.16c5.22-0.35,5.08-1.29,10.48-0.98c5.46,0.32,9.58,0.68,17.15,1.76
		c7.7,1.1,13.72,1.95,18.57,3.05c4.91,1.11,9.61,1.72,9.61,1.72V213c0,0-4.7-0.61-9.61-1.72c-4.85-1.1-10.87-1.94-18.57-3.05
		c-7.57-1.08-11.69-1.44-17.15-1.76c-5.4-0.31-5.26,0.63-10.48,0.98c-5.17,0.34-4.5,0.46-11.63,0.16c-7.02-0.3-4.04,0.01-7.95-0.43
		c-3.88-0.44-6.82-1.02-10.19-2.07c-3.34-1.04-4.59-2.08-7.36-2.28c-2.75-0.2-5.74-0.13-11.83-1.25c-5.99-1.1-4.44-1.57-5.28-2.47
		c-0.83-0.9,0.96-0.84,2.26-1.84c1.3-1,4.83-0.71,8.03-1.05c3.23-0.34,1.49-1.35,0.63-2.25c-0.86-0.89-1.45-2.04-0.74-3.14
		c0.7-1.1,9.85-2.7,10.91-3.72c1.05-1.02-2.19-2.2-4.02-3c-1.82-0.8-4.39-1.61-5.5-2.98c-1.09-1.36-3.2-2.98-5.7-4.5
		c-2.48-1.51-2.9-1.43-6.62-1.96c-3.68-0.52-4.15-1.25-10.18-2.5c-5.93-1.23-10-3.3-19.26-5.03c-9.02-1.68-29.16-4.9-34.91-5.67
		c-5.66-0.76-3.86-0.85-6.33-2.06c-2.45-1.2-3.24-1.91-5.14-2.96c-1.88-1.04-2.9,0.18-4.82-0.92c-1.91-1.1-4.39-1.2-3.63-1.49
		c0.76-0.29-0.11-0.63-0.95-1.66c-0.84-1.03,0.34-0.56,1.1-1.83c0.76-1.26-1.84-1.75-4.87-3.53c-3-1.75-6.17-4.94-7.52-5.9
		c-1.34-0.95-1.7-1.86-4.16-3.01c-2.44-1.14-7.56-2.17-11.74-3.72c-4.11-1.53-7.71-2.68-10.15-2.81c-2.42-0.13-3.43,0.16-4.75,0.53
		c-1.31,0.37-3.14,0.02-4.38-0.47c-1.23-0.49-2.59-1.16-5.96-1.78c-3.34-0.61-6.11-0.23-9.66-0.53c-3.52-0.29-6-1.04-6.63-1.71
		c-0.62-0.67-1.24-0.86-2.8-1.24c-1.55-0.38-4.83-0.02-6.98-0.87c-2.14-0.84-1.34-1.06-2.63-1.83c-1.29-0.77-2.89-0.84-5.09-1.6
		c-2.18-0.75-4.55-1.59-6.12-2.15c-1.56-0.55-2.01-0.79-4.78-1.15c-2.74-0.35-7.1,0.44-9.61,0.61c-2.49,0.17-2.43-0.2-5.14-1.18
		c-2.68-0.96-5.45-1.39-6.13-1.6c-0.68-0.21-3.5-0.57-6.47-1.47c-2.93-0.89-2.54-0.67-5.38-0.7c-2.81-0.03-3.47-0.28-3.88-1.04
		c-0.41-0.76-0.03-1.04-0.99-1.61c-0.95-0.56-2.68-0.61-3.1-1.17c-0.42-0.55-1.41-0.71-2.37-0.33c-0.96,0.38-2.11,0.38-2.62-0.11
		c-0.51-0.49-0.62-0.72-1.65-1.5c-1.02-0.77-2.2-0.86-2.93-1.55c-0.72-0.69-1.34-0.92-1.87-1.24c-0.54-0.33-1.83-0.44-2.32-1.19
		c-0.49-0.74-0.87-0.52-1.6-0.5c-0.72,0.02-1.98-0.32-3.47-0.63c-1.48-0.31-2.82-0.86-2.84-1.41c-0.02-0.54-0.86-1.81-0.86-1.81
		s-1.82-2.09-3.1-2.8c-1.26-0.7-1.79-1.83-2.3-2.16c-0.5-0.34-6.43-1.04-6.43-1.04V37.44z"/>
	<linearGradient id="SVGID_17_" gradientUnits="userSpaceOnUse" x1="50.2827" y1="83.9282" x2="51.2828" y2="39.9282">
		<stop  offset="0" style="stop-color:#FFFFFF;stop-opacity:0"/>
		<stop  offset="1" style="stop-color:#2CA6E0"/>
	</linearGradient>
	<path class="st25" d="M84.07,64.83c1.39-0.65,3.34-0.73,3.75-1.26c0.11-0.15,0.11-0.24,0-0.32V6.64c-0.41,0.54-2.36,0.62-3.75,1.27
		c-1.38,0.65-1.85,1.27-0.79,2.37c1.06,1.11,2.08,1.48,1.27,2.36c-0.8,0.89-1.55,1.24-0.84,1.7c0.72,0.46,3.35,0.96,2.56,2.55
		c-0.8,1.6-4.93,2.68-5.47,3.66c-0.55,0.98-0.65,3.28-0.85,3.8c-0.2,0.53-2.68,2.54-2.64,3.33c0.05,0.8,2.41,1.09-0.89,1.72
		c-3.27,0.62-4.69,0.51-5.18,1.41c-0.48,0.91-0.75,1.79-1.53,3.29c-0.79,1.5-1.89,2.31-2.97,3.17c-1.06,0.83-2.53,0.98-4.08,1.88
		c-0.04,0.02-0.07,0.04-0.11,0.06c-1.6,0.95-4.01,1.78-3.47,3.05c0.54,1.29,1.6,1.96,1.03,2.72c-0.57,0.76-1.85,1.41-3.27,2
		c-1.41,0.58-1.84,1.15-3.54,1.54c-1.7,0.39-1.75,0.26-2.53,0.78c-0.77,0.51-0.6,0.67-1.64,0.77c-1.04,0.1-1.65-0.1-1.74,0.52
		c-0.08,0.62-0.94,1.18-1.92,1.72c-0.97,0.53-1.92,0.27-1.15,1.2c0.77,0.94,1.11,1.26,0.52,1.71c-0.58,0.46-1.45,0.4-2.6,1.04
		c-1.15,0.63-1.95,1.05-2.86,0.87c-0.9-0.19-0.98-0.71-1.88-0.01c-0.91,0.7-1.73,1.03-2.78,1.3c-1.05,0.27-1.39-0.14-1.66,0.58
		c-0.28,0.73,0.12,1.62-1.45,1.22c-1.56-0.39-2.99-0.09-2.59-0.74c0.4-0.64-0.02-1.95-0.15-1.42c-0.13,0.53-0.57,1.7-1.25,2.11
		c-0.68,0.4-3.26,0.49-4.73,0.92c-1.45,0.43-2.44,0.77-3.74,1.7c-1.3,0.93-2.22,1.48-2.95,1.32c-0.73-0.16-1.52-0.22-1.81-0.59
		c-0.3-0.36-0.78-0.71-0.78-0.71v56.92c0,0,0.48,0.35,0.78,0.71c0.29,0.37,1.08,0.43,1.81,0.59c0.73,0.16,1.65-0.39,2.95-1.32
		c1.3-0.93,2.29-1.27,3.74-1.7c1.47-0.43,4.05-0.51,4.73-0.92c0.68-0.41,1.12-1.58,1.25-2.11c0.13-0.53,0.55,0.78,0.15,1.42
		c-0.4,0.65,1.03,0.35,2.59,0.74c1.57,0.4,1.17-0.49,1.45-1.22c0.27-0.72,0.61-0.31,1.66-0.58c1.05-0.27,1.87-0.6,2.78-1.3
		c0.9-0.7,0.98-0.18,1.88,0.01c0.91,0.18,1.71-0.24,2.86-0.87c1.15-0.64,2.02-0.58,2.6-1.03c0.59-0.46,0.25-0.78-0.52-1.72
		c-0.77-0.93,0.18-0.67,1.15-1.2c0.98-0.53,1.84-1.1,1.92-1.72c0.09-0.62,0.7-0.42,1.74-0.52c1.04-0.1,0.87-0.26,1.64-0.77
		c0.78-0.52,0.83-0.39,2.53-0.78c1.7-0.39,2.13-0.96,3.54-1.54c1.42-0.59,2.7-1.24,3.27-2c0.57-0.76-0.49-1.43-1.03-2.72
		c-0.54-1.27,1.87-2.1,3.47-3.05c1.59-0.95,3.1-1.08,4.19-1.94c1.08-0.86,2.18-1.67,2.97-3.17c0.78-1.5,1.05-2.38,1.53-3.29
		c0.49-0.9,1.91-0.79,5.18-1.41c3.3-0.63,0.94-0.92,0.89-1.72c-0.04-0.79,2.44-2.8,2.64-3.32c0.2-0.53,0.3-2.83,0.85-3.81
		c0.54-0.98,4.67-2.06,5.47-3.66c0.79-1.58-1.84-2.09-2.56-2.55c-0.71-0.46,0.04-0.81,0.84-1.7c0.81-0.88-0.21-1.25-1.27-2.36
		C82.22,66.1,82.69,65.48,84.07,64.83z"/>
	<path class="st26" d="M87.82,6.64c-0.41,0.54-2.36,0.62-3.75,1.27c-1.38,0.65-1.85,1.27-0.79,2.37c1.06,1.11,2.08,1.48,1.27,2.36
		c-0.8,0.89-1.55,1.24-0.84,1.7c0.72,0.46,3.35,0.96,2.56,2.55c-0.8,1.6-4.93,2.68-5.47,3.66c-0.55,0.98-0.65,3.28-0.85,3.8
		c-0.2,0.53-2.68,2.54-2.64,3.33c0.05,0.8,2.41,1.09-0.89,1.72c-3.27,0.62-4.69,0.51-5.18,1.41c-0.48,0.91-0.75,1.79-1.53,3.29
		c-0.79,1.5-1.89,2.31-2.97,3.17c-1.06,0.83-2.53,0.98-4.08,1.88c-0.04,0.02-0.07,0.04-0.11,0.06c-1.6,0.95-4.01,1.78-3.47,3.05
		c0.54,1.29,1.6,1.96,1.03,2.72c-0.57,0.76-1.85,1.41-3.27,2c-1.41,0.58-1.84,1.15-3.54,1.54c-1.7,0.39-1.75,0.26-2.53,0.78
		c-0.77,0.51-0.6,0.67-1.64,0.77c-1.04,0.1-1.65-0.1-1.74,0.52c-0.08,0.62-0.94,1.18-1.92,1.72c-0.97,0.53-1.92,0.27-1.15,1.2
		c0.77,0.94,1.11,1.26,0.52,1.71c-0.58,0.46-1.45,0.4-2.6,1.04c-1.15,0.63-1.95,1.05-2.86,0.87c-0.9-0.19-0.98-0.71-1.88-0.01
		c-0.91,0.7-1.73,1.03-2.78,1.3c-1.05,0.27-1.39-0.14-1.66,0.58c-0.28,0.73,0.12,1.62-1.45,1.22c-1.56-0.39-2.99-0.09-2.59-0.74
		c0.4-0.64-0.02-1.95-0.15-1.42c-0.13,0.53-0.57,1.7-1.25,2.11c-0.68,0.4-3.26,0.49-4.73,0.92c-1.45,0.43-2.44,0.77-3.74,1.7
		c-1.3,0.93-2.22,1.48-2.95,1.32c-0.73-0.16-1.52-0.22-1.81-0.59c-0.3-0.36-0.78-0.71-0.78-0.71v56.92"/>
	<g>
		<linearGradient id="SVGID_18_" gradientUnits="userSpaceOnUse" x1="61.2797" y1="81.5839" x2="47.9464" y2="99.7506">
			<stop  offset="0" style="stop-color:#FFFFFF;stop-opacity:0"/>
			<stop  offset="1" style="stop-color:#2CA6E0"/>
		</linearGradient>
		<path class="st27" d="M16.46,120.9c-0.1,0-0.19-0.01-0.29-0.03c-0.16-0.03-0.32-0.06-0.47-0.09c-0.59-0.11-1.14-0.21-1.39-0.53
			c-0.29-0.34-0.75-0.69-0.76-0.69l0.12-0.16c0.02,0.01,0.49,0.36,0.8,0.73c0.21,0.26,0.72,0.36,1.27,0.46
			c0.16,0.03,0.32,0.06,0.48,0.09c0.67,0.15,1.53-0.34,2.87-1.3c1.33-0.95,2.35-1.29,3.77-1.71c0.69-0.2,1.6-0.33,2.47-0.45
			c0.97-0.13,1.89-0.26,2.23-0.46c0.6-0.36,1.05-1.42,1.2-2.05c0.01-0.04,0.04-0.18,0.15-0.2c0.05,0,0.11,0,0.18,0.1
			c0.18,0.26,0.3,1.12,0,1.6c-0.03,0.04-0.07,0.12-0.05,0.16c0.06,0.11,0.48,0.15,0.93,0.19c0.47,0.04,1.05,0.09,1.65,0.24
			c0.48,0.12,0.8,0.13,0.97,0.02c0.16-0.11,0.2-0.34,0.24-0.61c0.03-0.18,0.06-0.38,0.13-0.57c0.19-0.52,0.45-0.52,0.85-0.53
			c0.23-0.01,0.51-0.01,0.88-0.11c0.97-0.25,1.81-0.56,2.74-1.28c0.67-0.53,0.95-0.4,1.34-0.22c0.17,0.08,0.36,0.16,0.62,0.22
			c0.86,0.17,1.62-0.22,2.79-0.86c0.59-0.33,1.1-0.47,1.55-0.6c0.43-0.12,0.76-0.22,1.03-0.43c0.17-0.13,0.25-0.24,0.26-0.34
			c0.03-0.23-0.22-0.53-0.63-1.03l-0.16-0.2c-0.25-0.31-0.34-0.51-0.29-0.67c0.06-0.2,0.3-0.27,0.63-0.36
			c0.24-0.07,0.54-0.16,0.84-0.32c0.93-0.51,1.79-1.06,1.87-1.64c0.08-0.55,0.52-0.56,1.12-0.57c0.21,0,0.45-0.01,0.71-0.04
			c0.71-0.07,0.82-0.16,1.11-0.39c0.12-0.1,0.26-0.22,0.49-0.36c0.58-0.39,0.77-0.42,1.48-0.57c0.27-0.05,0.61-0.12,1.08-0.23
			c1.05-0.24,1.62-0.56,2.22-0.89c0.38-0.21,0.77-0.43,1.31-0.65c1.18-0.49,2.62-1.16,3.23-1.97c0.31-0.41,0.09-0.77-0.35-1.43
			c-0.23-0.34-0.49-0.72-0.69-1.19c-0.46-1.08,1-1.84,2.41-2.58c0.37-0.2,0.76-0.4,1.1-0.6c0.02-0.01,0.04-0.02,0.06-0.03
			c0.02-0.01,0.04-0.02,0.06-0.03c0.72-0.42,1.45-0.68,2.09-0.92c0.73-0.27,1.42-0.52,1.97-0.95l0.21-0.17
			c0.98-0.78,2-1.58,2.73-2.97c0.43-0.83,0.7-1.46,0.95-2.02c0.2-0.46,0.37-0.86,0.58-1.27c0.38-0.69,1.22-0.82,2.91-1.07
			c0.63-0.09,1.42-0.21,2.34-0.39c1.33-0.25,1.64-0.44,1.67-0.55c0.02-0.08-0.17-0.22-0.31-0.34c-0.25-0.2-0.53-0.42-0.55-0.72
			c-0.03-0.53,0.89-1.47,1.7-2.29c0.45-0.46,0.88-0.9,0.95-1.08c0.07-0.18,0.13-0.59,0.2-1.07c0.13-0.93,0.3-2.09,0.66-2.74
			c0.25-0.45,1.16-0.9,2.21-1.41c1.32-0.64,2.82-1.37,3.25-2.25c0.15-0.3,0.18-0.56,0.08-0.81c-0.23-0.61-1.17-0.99-1.86-1.27
			c-0.31-0.12-0.57-0.23-0.75-0.34c-0.21-0.14-0.31-0.27-0.33-0.42c-0.03-0.27,0.23-0.52,0.59-0.87c0.17-0.16,0.36-0.35,0.55-0.56
			c0.19-0.2,0.27-0.38,0.27-0.54c-0.02-0.3-0.33-0.58-0.77-0.96c-0.23-0.21-0.5-0.44-0.76-0.72c-0.47-0.49-0.66-0.91-0.59-1.28
			c0.08-0.45,0.5-0.82,1.41-1.25c0.65-0.3,1.42-0.48,2.09-0.64c0.76-0.18,1.42-0.33,1.62-0.6l0.16,0.12
			c-0.24,0.32-0.9,0.47-1.74,0.67c-0.67,0.16-1.42,0.33-2.05,0.63c-0.83,0.39-1.23,0.73-1.3,1.1c-0.06,0.31,0.12,0.67,0.54,1.11
			c0.26,0.27,0.52,0.5,0.75,0.71c0.48,0.42,0.82,0.72,0.84,1.1c0.01,0.22-0.09,0.45-0.32,0.69c-0.2,0.22-0.39,0.41-0.56,0.57
			c-0.31,0.29-0.55,0.53-0.54,0.7c0.01,0.09,0.09,0.18,0.24,0.28c0.16,0.1,0.41,0.2,0.71,0.32c0.76,0.31,1.71,0.69,1.97,1.38
			c0.11,0.3,0.08,0.63-0.09,0.97c-0.47,0.93-2,1.68-3.34,2.33c-0.98,0.48-1.91,0.93-2.13,1.33c-0.35,0.62-0.52,1.8-0.64,2.67
			c-0.07,0.51-0.13,0.92-0.21,1.12c-0.08,0.22-0.49,0.63-0.99,1.15c-0.7,0.72-1.66,1.7-1.64,2.14c0.01,0.22,0.26,0.41,0.47,0.58
			c0.22,0.17,0.43,0.34,0.38,0.55c-0.05,0.22-0.39,0.42-1.83,0.7c-0.92,0.17-1.71,0.29-2.35,0.39c-1.62,0.24-2.43,0.37-2.76,0.97
			c-0.21,0.4-0.38,0.8-0.58,1.25c-0.24,0.56-0.52,1.2-0.95,2.04c-0.75,1.42-1.78,2.24-2.78,3.03l-0.21,0.17
			c-0.58,0.45-1.28,0.71-2.03,0.98c-0.66,0.24-1.35,0.49-2.06,0.91c-0.02,0.01-0.04,0.02-0.05,0.03c-0.02,0.01-0.04,0.02-0.06,0.03
			c-0.34,0.2-0.73,0.4-1.11,0.6c-1.33,0.69-2.7,1.41-2.32,2.32c0.19,0.45,0.45,0.83,0.67,1.16c0.42,0.62,0.76,1.11,0.35,1.66
			c-0.63,0.85-2.1,1.53-3.31,2.03c-0.53,0.22-0.91,0.43-1.29,0.64c-0.62,0.34-1.2,0.66-2.27,0.91c-0.47,0.11-0.81,0.17-1.09,0.23
			c-0.7,0.14-0.86,0.17-1.41,0.54c-0.22,0.14-0.36,0.26-0.47,0.35c-0.3,0.25-0.44,0.36-1.21,0.44c-0.27,0.03-0.51,0.03-0.72,0.04
			c-0.65,0.02-0.87,0.04-0.93,0.4c-0.08,0.63-0.85,1.17-1.97,1.79c-0.32,0.17-0.63,0.26-0.88,0.34c-0.25,0.07-0.46,0.13-0.49,0.23
			c-0.02,0.06,0.01,0.19,0.25,0.48l0.16,0.19c0.45,0.54,0.71,0.87,0.68,1.18c-0.02,0.17-0.13,0.32-0.33,0.48
			c-0.3,0.24-0.67,0.34-1.1,0.46c-0.44,0.12-0.94,0.26-1.51,0.58c-1.09,0.6-1.96,1.07-2.93,0.88c-0.29-0.06-0.5-0.15-0.66-0.23
			c-0.37-0.17-0.56-0.25-1.14,0.2c-0.96,0.74-1.82,1.06-2.82,1.32c-0.4,0.1-0.71,0.11-0.93,0.12c-0.38,0.01-0.52,0.01-0.66,0.4
			c-0.07,0.17-0.09,0.35-0.12,0.53c-0.04,0.3-0.09,0.59-0.32,0.75c-0.22,0.15-0.58,0.15-1.13,0.01c-0.59-0.15-1.16-0.19-1.62-0.23
			c-0.59-0.05-0.98-0.08-1.09-0.3c-0.05-0.1-0.03-0.22,0.06-0.36c0.26-0.41,0.13-1.12,0.03-1.34c-0.14,0.57-0.59,1.74-1.29,2.17
			c-0.38,0.23-1.28,0.35-2.31,0.49c-0.87,0.12-1.77,0.24-2.44,0.44c-1.4,0.41-2.41,0.75-3.71,1.68
			C17.99,120.41,17.15,120.9,16.46,120.9z M28.99,114.69L28.99,114.69L28.99,114.69z"/>
	</g>
	<g>
		<polygon class="st3" points="16.25,64.11 16.2,120.69 16.15,64.11 		"/>
	</g>
	<g>
		<polygon class="st3" points="28.97,59.61 28.92,114.6 28.87,59.61 		"/>
	</g>
	<g>
		<polygon class="st3" points="32.47,60.36 32.42,116.8 32.37,60.36 		"/>
	</g>
	<g>
		<polygon class="st3" points="33.5,58.58 33.45,115.15 33.4,58.58 		"/>
	</g>
	<g>
		<polygon class="st3" points="38.25,56.67 38.2,113.24 38.15,56.67 		"/>
	</g>
	<g>
		<polygon class="st3" points="45.25,54.92 45.2,111.49 45.15,54.92 		"/>
	</g>
	<g>
		<polygon class="st3" points="47.75,49.92 47.7,106.49 47.65,49.92 		"/>
	</g>
	<g>
		<polygon class="st3" points="60.33,44.42 60.28,100.99 60.23,44.42 		"/>
	</g>
	<g>
		<polygon class="st3" points="66.42,37.42 66.37,93.99 66.32,37.42 		"/>
	</g>
	<g>
		<polygon class="st3" points="71.75,30.08 71.7,86.65 71.65,30.08 		"/>
	</g>
	<g>
		<polygon class="st3" points="78.17,28.58 78.12,85.15 78.07,28.58 		"/>
	</g>
	<g>
		<polygon class="st3" points="80.08,24.08 80.03,80.65 79.98,24.08 		"/>
	</g>
	<g>
		<polygon class="st3" points="75.83,1.58 75.78,29.03 75.73,1.58 		"/>
	</g>
	<g>
		<polygon class="st3" points="86.29,16.85 86.24,73.44 86.19,16.85 		"/>
	</g>
	<g>
		<polygon class="st3" points="96.85,53.29 96.8,109.89 96.75,53.29 		"/>
	</g>
	<g>
		<polygon class="st3" points="105.35,56.54 105.3,113.14 105.25,56.54 		"/>
	</g>
	<g>
		<polygon class="st3" points="130.18,62.21 130.13,118.81 130.08,62.21 		"/>
	</g>
	<g>
		<polygon class="st3" points="157.6,66.46 157.55,123.06 157.5,66.46 		"/>
	</g>
	<g>
		<polygon class="st3" points="170.1,70.54 170.05,127.14 170,70.54 		"/>
	</g>
	<g>
		<polygon class="st3" points="195.85,75.13 195.8,131.72 195.75,75.13 		"/>
	</g>
	<g>
		<polygon class="st3" points="224.35,81.29 224.3,137.89 224.25,81.29 		"/>
	</g>
	<g>
		<polygon class="st3" points="239.68,97.04 239.63,153.64 239.58,97.04 		"/>
	</g>
	<g>
		<polygon class="st3" points="244.26,98.71 244.21,155.31 244.16,98.71 		"/>
	</g>
	<g>
		<polygon class="st3" points="254.76,103.04 254.71,159.64 254.66,103.04 		"/>
	</g>
	<g>
		<polygon class="st3" points="328.01,118.13 327.96,174.72 327.91,118.13 		"/>
	</g>
	<g>
		<polygon class="st3" points="348.35,147.79 348.3,204.39 348.25,147.79 		"/>
	</g>
	<g>
		<polygon class="st3" points="386.68,149.01 386.63,205.61 386.58,149.01 		"/>
	</g>
	<g>
		<polygon class="st3" points="336.9,145.79 336.85,202.39 336.8,145.79 		"/>
	</g>
	<g>
		<polygon class="st3" points="238.35,94.38 238.3,150.97 238.25,94.38 		"/>
	</g>
	<g>
		<polygon class="st3" points="84.96,12.13 84.91,14.9 84.86,12.13 		"/>
	</g>
	<linearGradient id="SVGID_19_" gradientUnits="userSpaceOnUse" x1="99.5311" y1="138.518" x2="101.3089" y2="84.7403">
		<stop  offset="0" style="stop-color:#FFFFFF;stop-opacity:0"/>
		<stop  offset="1" style="stop-color:#2CA6E0"/>
	</linearGradient>
	<path class="st28" d="M198.78,74.79c0,0,0.55,1.67,0.84,3.32c0.29,1.66-0.82,2.88-1.18,3.99c-0.37,1.11-1.15,2.62-2.67,2
		c-1.51-0.62-0.04-2.15-2.89-1.87c-2.83,0.27-3.28,0.46-3.95,2.11c-0.67,1.66-1.01,2.01-1.57,0.56c-0.56-1.44,1.86-1.61-2.46-1.71
		c-4.27-0.09-9.3-0.4-8.35-0.96c0.95-0.57,3.53,0.56,1.8-0.81c-1.72-1.36-2.18-1.54-2.18-1.54s0.98,0.45-1.54-0.62
		c-2.49-1.06-3.71-0.93-6.02-1.1c-2.29-0.18-3.5-1.03-5.85-0.53c-2.34,0.5,0.11,0.67-4.69,0.8c-4.74,0.13-4.54,0.12-9.27-0.17
		c-4.66-0.29-8.73-0.18-12.84-0.4c-4.06-0.22-7.3-0.11-9.92-0.32c-2.6-0.21-5.56-0.25-8.95-1.15c-3.34-0.88-8.46-1.41-11.69-1.91
		c-3.19-0.5-6.11-1.22-11.08-2.29c-4.87-1.05-7-1.47-9.58-1.95c-2.55-0.48-2.08-0.38-4.3-0.54c-2.2-0.16-1.67-0.43-3.39-0.82
		c-1.71-0.38-3.35-0.28-7.31-0.02c-3.91,0.26-5.79,0.02-8.66-0.56c-2.83-0.58-3.32-1.05-5.67-1.27c-2.33-0.21-1.85,0.26-4.79-0.23
		c-2.9-0.48-2.65-0.99-6.05-0.96c-3.37,0.03-2.32,0.17-6.65-0.03c-4.27-0.2-6.44-0.06-8.7-0.07c-2.25-0.01-2.94,0.16-3.07-0.24
		c-0.12-0.41-0.45-0.79-2.61-0.63c-2.15,0.17-4.07,0.84-5.24,1.34c-1.17,0.5-1.15,0.56-2.65,0.81c-1.49,0.26-2.29,0.4-2.73,0.93
		c-0.44,0.53,0.07,0.99-1.29,1.2c-1.36,0.21-1.42,0.22-3.83,0.25c-2.39,0.03-3.29-0.05-3.96,0.28c-0.67,0.34-2.13,0.73-2.13,0.73
		v56.92c0,0,1.46-0.39,2.13-0.73c0.67-0.34,1.57-0.26,3.96-0.28c2.42-0.03,2.48-0.03,3.83-0.25c1.36-0.22,0.85-0.68,1.29-1.2
		c0.44-0.53,1.24-0.68,2.73-0.93c1.49-0.26,1.48-0.32,2.65-0.81c1.17-0.5,3.09-1.18,5.24-1.34c2.16-0.17,2.48,0.22,2.61,0.63
		c0.12,0.41,0.82,0.24,3.07,0.24c2.27,0.01,4.44-0.12,8.7,0.07c4.34,0.2,3.29,0.06,6.65,0.03c3.41-0.03,3.15,0.48,6.05,0.96
		c2.93,0.48,2.46,0.01,4.79,0.23c2.35,0.22,2.84,0.69,5.67,1.27c2.86,0.58,4.75,0.81,8.66,0.56c3.96-0.26,5.6-0.37,7.31,0.02
		c1.72,0.39,1.18,0.65,3.39,0.82c2.22,0.16,1.76,0.06,4.3,0.54c2.57,0.49,4.71,0.9,9.58,1.95c4.96,1.07,7.88,1.79,11.08,2.29
		c3.23,0.51,8.35,1.03,11.69,1.91c3.39,0.9,6.35,0.94,8.95,1.15c2.62,0.21,5.86,0.1,9.92,0.32c4.11,0.23,8.17,0.12,12.84,0.4
		c4.73,0.29,4.53,0.3,9.27,0.17c4.8-0.13,2.35-0.3,4.69-0.8c2.35-0.5,3.57,0.35,5.85,0.53c2.3,0.18,3.53,0.04,6.02,1.1
		c2.51,1.07,1.54,0.62,1.54,0.62s0.46,0.18,2.18,1.54c1.73,1.37-0.84,0.24-1.8,0.81c-0.95,0.57,4.08,0.87,8.35,0.96
		c4.32,0.09,1.91,0.26,2.46,1.71c0.56,1.45,0.89,1.1,1.57-0.56c0.67-1.65,1.12-1.84,3.95-2.11c2.85-0.27,1.38,1.25,2.89,1.87
		c1.52,0.63,2.31-0.89,2.67-2c0.37-1.11,1.48-2.33,1.18-3.99c-0.29-1.65-0.84-3.32-0.84-3.32V74.79z"/>
	<g>
		<linearGradient id="SVGID_20_" gradientUnits="userSpaceOnUse" x1="414.3297" y1="192.2258" x2="315.2188" y2="134.448">
			<stop  offset="0" style="stop-color:#FFFFFF;stop-opacity:0"/>
			<stop  offset="0.8492" style="stop-color:#FFFFFF"/>
		</linearGradient>
		<path class="st29" d="M434.86,156.09c-0.05-0.01-4.77-0.63-9.63-1.73c-4.67-1.06-10.44-1.88-17.75-2.93l-0.8-0.12
			c-7.58-1.08-11.72-1.44-17.13-1.76c-3.14-0.18-4.36,0.06-5.92,0.37c-1.1,0.22-2.35,0.47-4.53,0.61c-0.89,0.06-1.61,0.11-2.22,0.16
			c-2.98,0.22-3.52,0.26-9.43,0c-2.87-0.12-4.05-0.14-4.75-0.16c-0.91-0.01-0.91-0.01-2.67-0.22l-0.55-0.06
			c-3.97-0.45-6.94-1.05-10.24-2.08c-1.24-0.38-2.19-0.77-3.03-1.11c-1.43-0.58-2.56-1.03-4.27-1.16c-0.57-0.04-1.15-0.07-1.77-0.1
			c-2.34-0.12-5.25-0.27-10.09-1.16c-4.52-0.83-4.88-1.3-5.15-2.06c-0.06-0.17-0.11-0.31-0.27-0.49c-0.08-0.09-0.34-0.37-0.26-0.68
			c0.08-0.37,0.5-0.53,1.07-0.76c0.45-0.18,1.01-0.4,1.49-0.76c0.96-0.73,2.89-0.81,5.13-0.91c1-0.04,2.03-0.08,3.03-0.19
			c1.43-0.15,1.62-0.41,1.65-0.49c0.06-0.19-0.42-0.63-0.73-0.92c-0.15-0.14-0.31-0.28-0.44-0.42c-1.17-1.22-1.43-2.41-0.77-3.45
			c0.39-0.62,2.49-1.21,5.88-2.11c2.16-0.57,4.61-1.22,5.06-1.65c0.15-0.15,0.13-0.25,0.13-0.28c-0.12-0.63-2.07-1.46-3.37-2.01
			c-0.25-0.11-0.49-0.21-0.71-0.3c-0.37-0.16-0.78-0.33-1.19-0.5c-1.63-0.66-3.48-1.42-4.4-2.55c-1.03-1.28-3.03-2.86-5.63-4.45
			c-2.18-1.33-2.68-1.4-5.46-1.78l-1.06-0.15c-1.87-0.26-2.93-0.59-4.27-0.99c-1.31-0.4-2.94-0.89-5.92-1.51
			c-2.52-0.52-4.73-1.2-7.07-1.92c-3.21-0.99-6.85-2.11-12.19-3.1c-9.23-1.72-29.33-4.93-34.9-5.67c-4.06-0.54-4.35-0.76-5.07-1.28
			c-0.28-0.2-0.63-0.45-1.33-0.8c-1.5-0.74-2.4-1.3-3.27-1.84c-0.56-0.35-1.14-0.71-1.88-1.12c-0.86-0.48-1.53-0.45-2.23-0.41
			c-0.77,0.04-1.56,0.08-2.6-0.52c-0.97-0.56-2.11-0.86-2.87-1.05c-0.73-0.19-1.01-0.26-1.03-0.53c-0.01-0.16,0.09-0.27,0.3-0.35
			c0.05-0.02,0.09-0.04,0.11-0.05c-0.06-0.09-0.23-0.25-0.37-0.38c-0.23-0.22-0.51-0.48-0.8-0.83c-0.28-0.34-0.38-0.57-0.34-0.78
			c0.05-0.25,0.26-0.37,0.49-0.5c0.28-0.16,0.63-0.35,0.92-0.84c0.12-0.2,0.1-0.32,0.08-0.4c-0.13-0.44-1.05-0.87-2.22-1.43
			c-0.79-0.38-1.69-0.8-2.65-1.36c-2-1.17-4.11-3-5.64-4.33c-0.78-0.68-1.45-1.26-1.9-1.58c-0.47-0.33-0.83-0.66-1.17-0.98
			c-0.67-0.62-1.36-1.26-2.94-2.01c-1.26-0.59-3.32-1.17-5.49-1.78c-1.98-0.56-4.23-1.19-6.23-1.93c-3.3-1.22-7.43-2.65-10.08-2.79
			c-2.36-0.13-3.36,0.15-4.63,0.51c-1.39,0.39-3.3,0.05-4.58-0.47l-0.47-0.19c-1.12-0.46-2.51-1.03-5.45-1.57
			c-1.97-0.36-3.74-0.37-5.61-0.39c-1.27-0.01-2.58-0.02-4.03-0.14c-3.32-0.27-6.05-0.99-6.79-1.79c-0.57-0.62-1.16-0.8-2.67-1.17
			c-0.58-0.14-1.46-0.18-2.39-0.21c-1.54-0.06-3.28-0.13-4.63-0.67c-1.33-0.53-1.59-0.84-1.86-1.17c-0.17-0.2-0.33-0.4-0.81-0.69
			c-0.73-0.43-1.59-0.64-2.59-0.88c-0.72-0.18-1.54-0.37-2.46-0.69c-2.18-0.75-4.55-1.59-6.12-2.15l-0.47-0.17
			c-1.21-0.43-1.81-0.65-4.25-0.96c-1.9-0.24-4.57,0.07-6.92,0.34c-0.97,0.11-1.89,0.22-2.64,0.27c-1.92,0.13-2.39-0.06-3.64-0.57
			c-0.41-0.17-0.92-0.38-1.6-0.62c-1.89-0.68-3.85-1.09-5.03-1.34c-0.51-0.11-0.88-0.19-1.09-0.25c-0.21-0.06-0.67-0.15-1.26-0.26
			c-1.28-0.24-3.2-0.6-5.21-1.21c-2.32-0.7-2.51-0.7-3.95-0.69c-0.36,0-0.8,0.01-1.36,0c-2.81-0.03-3.61-0.26-4.1-1.18
			c-0.16-0.29-0.21-0.53-0.25-0.71c-0.07-0.31-0.11-0.48-0.64-0.8c-0.41-0.24-0.98-0.38-1.53-0.52c-0.73-0.18-1.35-0.34-1.64-0.71
			c-0.36-0.47-1.25-0.58-2.08-0.25c-0.96,0.37-2.26,0.44-2.89-0.17c-0.14-0.13-0.24-0.25-0.35-0.35c-0.29-0.3-0.54-0.56-1.28-1.12
			c-0.47-0.35-0.98-0.56-1.47-0.75c-0.55-0.22-1.07-0.42-1.47-0.81c-0.51-0.49-0.96-0.73-1.39-0.96c-0.15-0.08-0.3-0.16-0.44-0.25
			c-0.16-0.1-0.42-0.18-0.69-0.27c-0.59-0.19-1.33-0.43-1.71-1c-0.31-0.48-0.51-0.46-0.98-0.41c-0.12,0.01-0.25,0.02-0.39,0.03
			c-0.61,0.02-1.44-0.17-2.52-0.41c-0.32-0.07-0.66-0.15-1.01-0.22c-0.7-0.15-3-0.71-3.04-1.64c-0.01-0.34-0.51-1.22-0.82-1.68l0,0
			c0,0-1.79-2.04-3.01-2.72c-0.84-0.47-1.38-1.12-1.77-1.6c-0.21-0.25-0.39-0.48-0.54-0.58c-0.34-0.21-3.9-0.71-6.32-1l0.06-0.5
			c1,0.12,6.01,0.73,6.54,1.08c0.22,0.14,0.42,0.39,0.65,0.68c0.39,0.47,0.87,1.06,1.63,1.48c1.3,0.72,3.09,2.77,3.16,2.85
			c0.11,0.16,0.9,1.37,0.93,1.97c0.01,0.25,0.85,0.79,2.64,1.17c0.35,0.07,0.69,0.15,1.02,0.22c1.01,0.22,1.85,0.43,2.39,0.4
			c0.13,0,0.25-0.02,0.36-0.03c0.52-0.05,0.97-0.09,1.45,0.64c0.28,0.42,0.9,0.62,1.45,0.8c0.3,0.1,0.59,0.19,0.8,0.31
			c0.14,0.08,0.28,0.16,0.42,0.24c0.44,0.24,0.93,0.5,1.49,1.04c0.34,0.32,0.79,0.5,1.31,0.71c0.5,0.2,1.07,0.42,1.59,0.82
			c0.78,0.58,1.05,0.87,1.34,1.17c0.1,0.11,0.21,0.21,0.34,0.34c0.4,0.39,1.44,0.42,2.36,0.06c1.05-0.41,2.17-0.23,2.66,0.42
			c0.17,0.23,0.78,0.38,1.36,0.53c0.59,0.15,1.2,0.3,1.67,0.58c0.67,0.4,0.78,0.69,0.88,1.12c0.04,0.17,0.08,0.35,0.21,0.59
			c0.32,0.6,0.78,0.88,3.67,0.91c0.56,0,0.99,0,1.35,0c1.48-0.01,1.71-0.02,4.1,0.71c1.98,0.6,3.89,0.96,5.16,1.19
			c0.63,0.12,1.08,0.2,1.32,0.27c0.19,0.06,0.57,0.14,1.05,0.24c1.19,0.25,3.17,0.67,5.09,1.36c0.69,0.25,1.21,0.46,1.63,0.63
			c1.21,0.49,1.62,0.66,3.42,0.54c0.74-0.05,1.65-0.16,2.61-0.27c2.38-0.28,5.08-0.59,7.04-0.34c2.49,0.32,3.15,0.56,4.36,0.99
			l0.47,0.17c1.57,0.56,3.94,1.39,6.11,2.15c0.9,0.31,1.7,0.5,2.41,0.68c1.04,0.25,1.93,0.47,2.72,0.94
			c0.56,0.33,0.76,0.58,0.94,0.8c0.24,0.29,0.44,0.54,1.65,1.02c1.27,0.5,2.97,0.57,4.47,0.63c1,0.04,1.86,0.07,2.48,0.23
			c1.59,0.39,2.26,0.6,2.92,1.32c0.55,0.59,2.95,1.34,6.46,1.63c1.43,0.12,2.73,0.13,3.99,0.14c1.89,0.01,3.68,0.03,5.69,0.39
			c2.99,0.55,4.41,1.13,5.55,1.6l0.46,0.19c1.21,0.48,2.98,0.81,4.22,0.46c1.35-0.38,2.4-0.67,4.83-0.54
			c2.14,0.12,5.2,0.96,10.22,2.83c1.98,0.73,4.22,1.36,6.19,1.92c2.29,0.64,4.27,1.2,5.57,1.81c1.66,0.78,2.38,1.45,3.07,2.09
			c0.35,0.33,0.68,0.63,1.12,0.94c0.47,0.33,1.15,0.92,1.94,1.61c1.52,1.32,3.6,3.13,5.57,4.28c0.94,0.55,1.83,0.97,2.61,1.34
			c1.38,0.65,2.29,1.08,2.48,1.73c0.08,0.26,0.03,0.53-0.13,0.8c-0.36,0.6-0.81,0.85-1.1,1.02c-0.09,0.05-0.22,0.13-0.25,0.16
			c0,0,0,0,0,0c0,0,0.01,0.09,0.23,0.36c0.26,0.32,0.54,0.58,0.75,0.79c0.36,0.34,0.6,0.56,0.54,0.85
			c-0.02,0.11-0.08,0.19-0.15,0.25c0.12,0.03,0.25,0.07,0.38,0.1c0.78,0.2,1.96,0.51,2.99,1.1c0.91,0.52,1.6,0.49,2.32,0.45
			c0.74-0.04,1.51-0.08,2.5,0.47c0.75,0.41,1.33,0.78,1.9,1.13c0.9,0.56,1.75,1.09,3.23,1.82c0.75,0.37,1.11,0.63,1.41,0.84
			c0.65,0.47,0.91,0.66,4.85,1.19c5.57,0.75,25.69,3.95,34.92,5.68c5.36,1,9.02,2.13,12.24,3.12c2.33,0.72,4.53,1.39,7.02,1.91
			c3.01,0.62,4.65,1.12,5.97,1.52c1.32,0.4,2.36,0.72,4.2,0.98l1.06,0.15c2.8,0.38,3.39,0.46,5.65,1.84
			c2.65,1.62,4.7,3.24,5.77,4.56c0.83,1.04,2.62,1.76,4.19,2.4c0.42,0.17,0.83,0.34,1.21,0.5c0.22,0.09,0.45,0.2,0.7,0.3
			c1.98,0.84,3.51,1.55,3.66,2.38c0.03,0.18,0.01,0.46-0.27,0.73c-0.51,0.49-2.34,1-5.28,1.78c-2.35,0.62-5.27,1.39-5.59,1.89
			c-0.53,0.83-0.29,1.79,0.71,2.83c0.13,0.13,0.27,0.27,0.42,0.4c0.53,0.49,1.03,0.95,0.87,1.45c-0.15,0.44-0.77,0.69-2.07,0.83
			c-1.02,0.11-2.06,0.15-3.06,0.19c-2.07,0.09-4.02,0.17-4.85,0.81c-0.53,0.41-1.13,0.64-1.61,0.83c-0.3,0.12-0.75,0.3-0.77,0.4
			c0,0.02,0.01,0.09,0.14,0.23c0.23,0.25,0.31,0.48,0.37,0.66c0.16,0.47,0.32,0.91,4.76,1.73c4.8,0.88,7.7,1.03,10.02,1.15
			c0.62,0.03,1.21,0.06,1.78,0.1c1.79,0.13,2.95,0.6,4.42,1.19c0.83,0.34,1.78,0.72,2.99,1.1c3.27,1.02,6.21,1.61,10.15,2.06
			l0.55,0.06c1.74,0.2,1.74,0.2,2.62,0.21c0.7,0.01,1.88,0.03,4.76,0.15c5.89,0.25,6.42,0.21,9.38,0c0.61-0.04,1.33-0.1,2.22-0.16
			c2.14-0.14,3.38-0.39,4.47-0.6c1.59-0.32,2.84-0.56,6.04-0.38c5.43,0.32,9.57,0.67,17.17,1.76l0.8,0.11
			c7.32,1.05,13.1,1.87,17.79,2.93c4.84,1.1,9.54,1.71,9.58,1.72L434.86,156.09z"/>
	</g>
	<g>
		<linearGradient id="SVGID_21_" gradientUnits="userSpaceOnUse" x1="397.2513" y1="225.7647" x2="199.2513" y2="130.2092">
			<stop  offset="0" style="stop-color:#FFFFFF;stop-opacity:0"/>
			<stop  offset="1" style="stop-color:#2CA6E0"/>
		</linearGradient>
		<path class="st30" d="M433.99,213.19c-1.73-0.25-5.17-0.8-8.73-1.6c-4.68-1.06-10.45-1.88-17.76-2.93l-0.81-0.12
			c-7.58-1.08-11.72-1.44-17.14-1.76c-3.15-0.18-4.39,0.06-5.96,0.37c-1.1,0.22-2.34,0.46-4.51,0.61c-0.89,0.06-1.6,0.11-2.21,0.16
			c-2.97,0.22-3.51,0.26-9.42,0c-2.87-0.12-4.05-0.14-4.75-0.15c-0.9-0.02-0.9-0.02-2.65-0.21l-0.56-0.06
			c-3.96-0.45-6.92-1.05-10.21-2.08c-1.23-0.38-2.18-0.77-3.02-1.11c-1.44-0.58-2.58-1.04-4.32-1.17c-0.57-0.04-1.16-0.07-1.78-0.1
			c-2.33-0.12-5.24-0.27-10.06-1.15c-4.65-0.86-4.82-1.34-5.03-1.96c-0.06-0.17-0.12-0.34-0.3-0.54c-0.19-0.21-0.27-0.39-0.23-0.55
			c0.07-0.29,0.45-0.44,0.98-0.65c0.46-0.18,1.03-0.41,1.52-0.79c0.92-0.71,2.83-0.79,5.05-0.88c1-0.04,2.03-0.09,3.04-0.19
			c1.35-0.14,1.71-0.4,1.77-0.59c0.09-0.28-0.37-0.71-0.77-1.08c-0.15-0.14-0.3-0.28-0.43-0.41c-1.11-1.16-1.38-2.29-0.75-3.26
			c0.39-0.61,3.01-1.31,5.79-2.04c2.29-0.61,4.65-1.23,5.13-1.69c0.14-0.13,0.2-0.27,0.17-0.42c-0.13-0.7-2.05-1.52-3.45-2.12
			c-0.25-0.11-0.49-0.21-0.71-0.3c-0.37-0.16-0.77-0.33-1.19-0.5c-1.62-0.66-3.45-1.4-4.34-2.51c-1.04-1.29-3.06-2.89-5.67-4.48
			c-2.21-1.34-2.78-1.42-5.53-1.79c-0.32-0.04-0.67-0.09-1.05-0.15c-1.86-0.26-2.92-0.58-4.25-0.99c-1.31-0.4-2.95-0.9-5.94-1.51
			c-2.51-0.52-4.71-1.2-7.05-1.92c-3.22-0.99-6.86-2.11-12.21-3.11c-9.19-1.72-29.31-4.92-34.9-5.67c-4.02-0.54-4.31-0.75-5-1.25
			c-0.28-0.21-0.64-0.46-1.36-0.81c-1.5-0.73-2.39-1.29-3.26-1.84c-0.56-0.35-1.14-0.71-1.88-1.12c-0.9-0.5-1.59-0.46-2.31-0.43
			c-0.74,0.04-1.51,0.08-2.51-0.5c-0.99-0.57-2.14-0.87-2.91-1.07c-0.7-0.18-0.9-0.24-0.91-0.4c-0.01-0.12,0.14-0.18,0.2-0.21
			c0.18-0.07,0.22-0.13,0.23-0.15c0.02-0.1-0.2-0.31-0.44-0.53c-0.22-0.21-0.5-0.48-0.78-0.82c-0.25-0.3-0.34-0.49-0.31-0.66
			c0.03-0.18,0.2-0.27,0.42-0.39c0.28-0.16,0.67-0.37,0.98-0.89c0.11-0.19,0.15-0.36,0.1-0.52c-0.15-0.5-1.05-0.93-2.3-1.52
			c-0.79-0.38-1.69-0.8-2.64-1.36c-1.99-1.17-4.09-2.99-5.62-4.32c-0.78-0.68-1.46-1.26-1.91-1.58c-0.46-0.33-0.8-0.64-1.16-0.97
			c-0.67-0.63-1.37-1.27-2.98-2.03c-1.27-0.6-3.33-1.18-5.52-1.79c-1.98-0.56-4.23-1.19-6.22-1.92c-3.31-1.23-7.45-2.66-10.12-2.8
			c-2.37-0.13-3.39,0.15-4.68,0.52l-0.04,0.01c-1.32,0.37-3.18,0.03-4.45-0.47c-0.15-0.06-0.31-0.12-0.47-0.19
			c-1.13-0.46-2.53-1.04-5.48-1.58c-1.98-0.36-3.76-0.38-5.63-0.39c-1.27-0.01-2.58-0.02-4.02-0.14c-3.23-0.27-5.98-0.98-6.69-1.74
			c-0.6-0.65-1.2-0.84-2.75-1.21c-0.59-0.14-1.48-0.18-2.41-0.22c-1.52-0.06-3.25-0.13-4.58-0.66c-1.3-0.51-1.54-0.81-1.8-1.12
			c-0.17-0.21-0.34-0.42-0.85-0.72c-0.74-0.44-1.62-0.65-2.63-0.9c-0.72-0.17-1.53-0.37-2.45-0.69c-2.02-0.7-4.18-1.46-5.76-2.02
			l-0.35-0.12c-0.17-0.06-0.32-0.12-0.47-0.17c-1.22-0.44-1.83-0.66-4.29-0.97c-1.91-0.24-4.59,0.07-6.96,0.34
			c-0.97,0.11-1.89,0.22-2.63,0.27c-1.88,0.13-2.34-0.06-3.57-0.56c-0.41-0.17-0.92-0.38-1.61-0.63c-1.9-0.68-3.87-1.1-5.05-1.35
			c-0.5-0.11-0.87-0.18-1.07-0.25c-0.22-0.07-0.66-0.15-1.28-0.26c-1.27-0.24-3.2-0.59-5.2-1.2c-2.34-0.71-2.56-0.71-3.99-0.7
			c-0.36,0-0.8,0.01-1.36,0c-2.74-0.03-3.51-0.24-3.97-1.1c-0.15-0.28-0.2-0.49-0.24-0.68c-0.08-0.33-0.12-0.55-0.71-0.89
			c-0.43-0.25-1.01-0.4-1.57-0.54c-0.7-0.18-1.3-0.33-1.55-0.65c-0.4-0.53-1.35-0.65-2.26-0.3c-0.92,0.36-2.15,0.43-2.73-0.13
			c-0.13-0.13-0.24-0.24-0.35-0.35c-0.28-0.29-0.55-0.57-1.3-1.14c-0.49-0.37-1.01-0.57-1.51-0.77c-0.53-0.21-1.04-0.41-1.43-0.78
			c-0.53-0.5-1-0.76-1.42-0.99c-0.15-0.08-0.29-0.16-0.43-0.24c-0.17-0.1-0.44-0.19-0.72-0.28c-0.57-0.18-1.28-0.41-1.63-0.94
			c-0.37-0.55-0.63-0.53-1.12-0.48c-0.12,0.01-0.25,0.02-0.39,0.03c-0.02,0-0.05,0-0.08,0c-0.57,0-1.42-0.19-2.41-0.41
			c-0.32-0.07-0.66-0.15-1.01-0.22c-1.39-0.3-2.89-0.85-2.92-1.5c-0.02-0.42-0.62-1.42-0.85-1.76c-0.01-0.01-1.82-2.08-3.06-2.77
			c-0.82-0.45-1.32-1.07-1.73-1.56c-0.22-0.26-0.41-0.49-0.58-0.61c-0.25-0.16-2.12-0.48-5.13-0.87l0.03-0.2
			c2.18,0.28,4.86,0.67,5.22,0.9c0.2,0.13,0.39,0.37,0.62,0.65c0.39,0.48,0.88,1.08,1.67,1.51c1.27,0.71,3.05,2.73,3.12,2.82
			c0.04,0.06,0.87,1.31,0.89,1.88c0.02,0.43,1.18,0.98,2.76,1.32c0.35,0.07,0.69,0.15,1.01,0.22c0.97,0.22,1.82,0.41,2.36,0.41
			c0.02,0,0.05,0,0.07,0c0.14,0,0.26-0.02,0.38-0.03c0.49-0.04,0.88-0.08,1.31,0.57c0.31,0.46,0.95,0.67,1.52,0.85
			c0.3,0.09,0.57,0.18,0.77,0.3c0.14,0.08,0.28,0.16,0.43,0.24c0.43,0.23,0.92,0.5,1.46,1.02c0.36,0.34,0.85,0.54,1.36,0.74
			c0.51,0.21,1.05,0.42,1.56,0.8c0.76,0.58,1.04,0.86,1.32,1.16c0.1,0.11,0.21,0.22,0.34,0.34c0.45,0.44,1.53,0.47,2.52,0.09
			c0.99-0.38,2.03-0.23,2.49,0.37c0.21,0.27,0.81,0.42,1.44,0.58c0.58,0.14,1.18,0.29,1.63,0.56c0.66,0.39,0.73,0.67,0.81,1.02
			c0.04,0.18,0.08,0.37,0.22,0.63c0.38,0.72,0.99,0.96,3.8,0.99c0.56,0,0.99,0,1.35,0c1.46,0,1.69-0.01,4.05,0.7
			c1.99,0.6,3.91,0.96,5.17,1.2c0.62,0.12,1.07,0.2,1.3,0.27c0.19,0.06,0.57,0.14,1.05,0.24c1.18,0.25,3.17,0.67,5.08,1.36
			c0.69,0.25,1.2,0.46,1.62,0.63c1.23,0.5,1.65,0.67,3.48,0.55c0.74-0.05,1.65-0.16,2.62-0.27c2.38-0.28,5.07-0.59,7-0.34
			c2.48,0.32,3.1,0.54,4.33,0.99c0.15,0.05,0.3,0.11,0.47,0.17l0.35,0.12c1.58,0.56,3.74,1.33,5.76,2.02
			c0.9,0.31,1.71,0.51,2.43,0.68c1.02,0.25,1.91,0.46,2.68,0.92c0.54,0.32,0.73,0.56,0.9,0.77c0.25,0.31,0.47,0.57,1.72,1.06
			c1.3,0.51,3.01,0.58,4.51,0.64c0.99,0.04,1.84,0.07,2.45,0.22c1.56,0.38,2.21,0.59,2.85,1.27c0.55,0.59,2.84,1.37,6.56,1.68
			c1.43,0.12,2.74,0.13,4,0.14c1.89,0.01,3.67,0.02,5.67,0.39c2.97,0.55,4.38,1.13,5.52,1.59c0.16,0.06,0.31,0.13,0.46,0.19
			c1.23,0.49,3.04,0.83,4.32,0.47l0.04-0.01c1.3-0.37,2.33-0.66,4.74-0.52c2.13,0.12,5.17,0.96,10.18,2.82
			c1.98,0.74,4.22,1.36,6.2,1.92c2.29,0.64,4.26,1.2,5.55,1.8c1.64,0.77,2.35,1.43,3.03,2.07c0.35,0.33,0.69,0.64,1.14,0.96
			c0.46,0.33,1.14,0.91,1.92,1.6c1.53,1.33,3.62,3.14,5.59,4.3c0.95,0.55,1.84,0.97,2.62,1.35c1.29,0.61,2.23,1.05,2.4,1.64
			c0.07,0.22,0.03,0.44-0.12,0.68c-0.34,0.56-0.77,0.8-1.05,0.96c-0.17,0.1-0.3,0.17-0.32,0.26c-0.02,0.09,0.07,0.25,0.26,0.49
			c0.27,0.33,0.55,0.59,0.77,0.8c0.32,0.3,0.54,0.51,0.5,0.71c-0.03,0.16-0.22,0.25-0.35,0.3c-0.01,0-0.02,0.01-0.03,0.01
			c0.13,0.06,0.43,0.13,0.72,0.21c0.77,0.2,1.94,0.5,2.95,1.09c0.95,0.55,1.65,0.51,2.41,0.47c0.72-0.04,1.47-0.07,2.42,0.45
			c0.74,0.41,1.33,0.77,1.89,1.13c0.91,0.57,1.76,1.1,3.25,1.83c0.73,0.36,1.1,0.62,1.38,0.83c0.67,0.48,0.95,0.68,4.92,1.22
			c5.59,0.75,25.72,3.96,34.91,5.67c5.36,1,9.01,2.12,12.23,3.11c2.33,0.72,4.54,1.4,7.03,1.91c3,0.62,4.64,1.12,5.96,1.52
			c1.33,0.4,2.38,0.72,4.22,0.98c0.38,0.05,0.73,0.1,1.05,0.15c2.78,0.38,3.36,0.46,5.6,1.82c2.64,1.61,4.67,3.21,5.73,4.53
			c0.86,1.07,2.66,1.8,4.26,2.45c0.42,0.17,0.83,0.33,1.2,0.5c0.22,0.1,0.46,0.2,0.71,0.3c1.6,0.68,3.42,1.46,3.57,2.27
			c0.04,0.21-0.04,0.41-0.23,0.6c-0.52,0.5-2.8,1.1-5.22,1.74c-2.49,0.66-5.32,1.41-5.67,1.96c-0.71,1.12,0,2.26,0.73,3.02
			c0.13,0.13,0.28,0.27,0.42,0.41c0.49,0.46,0.96,0.89,0.83,1.29c-0.12,0.37-0.74,0.6-1.94,0.72c-1.01,0.11-2.05,0.15-3.05,0.19
			c-2.09,0.09-4.07,0.17-4.93,0.84c-0.51,0.39-1.1,0.63-1.57,0.81c-0.44,0.17-0.82,0.33-0.86,0.51c-0.02,0.09,0.04,0.21,0.18,0.37
			c0.21,0.23,0.28,0.43,0.34,0.61c0.18,0.54,0.34,1,4.88,1.83c4.81,0.88,7.7,1.03,10.03,1.15c0.62,0.03,1.21,0.06,1.78,0.1
			c1.77,0.13,2.92,0.59,4.38,1.18c0.83,0.34,1.78,0.72,3,1.1c3.28,1.02,6.22,1.62,10.17,2.07l0.56,0.06c1.74,0.2,1.74,0.2,2.63,0.21
			c0.7,0.01,1.88,0.03,4.76,0.16c5.9,0.25,6.44,0.21,9.4,0c0.61-0.04,1.33-0.1,2.21-0.16c2.15-0.14,3.39-0.39,4.49-0.6
			c1.58-0.31,2.83-0.56,6.01-0.38c5.43,0.32,9.57,0.67,17.16,1.76l0.81,0.11c7.31,1.05,13.09,1.87,17.78,2.93
			c3.55,0.8,6.98,1.35,8.71,1.6L433.99,213.19z"/>
	</g>
	<g>
		<linearGradient id="SVGID_22_" gradientUnits="userSpaceOnUse" x1="125.248" y1="161.8584" x2="73.739" y2="103.4479">
			<stop  offset="0" style="stop-color:#FFFFFF;stop-opacity:0"/>
			<stop  offset="1" style="stop-color:#FFFFFF"/>
		</linearGradient>
		<path class="st31" d="M187.89,143.54C187.88,143.54,187.88,143.54,187.89,143.54c-0.39,0-0.63-0.43-0.88-1.07
			c-0.24-0.6-0.03-1.04,0.1-1.29c0.01-0.03,0.03-0.07,0.05-0.1c-0.33-0.11-1.66-0.14-2.4-0.15c-8.58-0.18-8.74-0.77-8.79-0.99
			c-0.02-0.08-0.04-0.28,0.23-0.44c0.48-0.28,1.22-0.21,1.81-0.16c0.09,0.01,0.2,0.02,0.29,0.03c-0.07-0.07-0.17-0.15-0.31-0.26
			c-1.3-1.02-1.87-1.36-2.06-1.46c-0.28-0.09-0.76-0.3-1.63-0.66c-2.01-0.85-3.19-0.92-4.82-1.01c-0.37-0.02-0.76-0.04-1.19-0.08
			c-0.86-0.07-1.56-0.22-2.23-0.37c-1.15-0.25-2.15-0.47-3.61-0.17c-0.83,0.18-1.01,0.3-1.16,0.4c-0.34,0.22-0.49,0.32-3.62,0.41
			c-4.57,0.13-4.64,0.12-8.72-0.13l-0.68-0.04c-2.52-0.15-4.87-0.19-7.14-0.23c-2.01-0.03-3.9-0.07-5.84-0.17
			c-2.02-0.11-3.86-0.14-5.48-0.16c-1.72-0.03-3.2-0.05-4.56-0.16c-0.49-0.04-1-0.07-1.52-0.11c-2.23-0.15-4.76-0.31-7.57-1.05
			c-2.41-0.63-5.73-1.08-8.66-1.47c-1.14-0.15-2.22-0.3-3.14-0.44c-2.41-0.37-4.63-0.86-7.7-1.53c-1.06-0.23-2.21-0.48-3.5-0.76
			c-4.99-1.07-7.15-1.48-9.67-1.95c-2.06-0.38-2.15-0.39-3.28-0.46c-0.27-0.02-0.61-0.04-1.04-0.07c-1.38-0.1-1.74-0.24-2.19-0.43
			c-0.28-0.11-0.6-0.24-1.27-0.39c-1.69-0.38-3.33-0.27-7.3-0.01c-3.94,0.25-5.83,0.04-8.83-0.56c-1.21-0.24-1.99-0.47-2.68-0.66
			c-0.93-0.27-1.66-0.48-3.02-0.6c-0.98-0.09-1.45-0.06-1.91-0.03c-0.62,0.04-1.22,0.08-2.95-0.2c-1.1-0.18-1.75-0.36-2.32-0.52
			c-0.94-0.26-1.62-0.46-3.76-0.43c-1.12,0.01-1.76,0.03-2.27,0.05c-1.02,0.03-1.53,0.05-4.47-0.08c-3.08-0.14-5.05-0.11-6.8-0.09
			c-0.69,0.01-1.35,0.01-1.99,0.02c-0.62,0-1.13,0.01-1.53,0.02c-1.17,0.03-1.66,0.04-1.81-0.44c-0.07-0.22-0.19-0.62-2.38-0.45
			c-2.09,0.16-3.99,0.81-5.22,1.32l-0.44,0.19c-0.78,0.34-0.97,0.42-2.3,0.64c-1.5,0.26-2.23,0.4-2.61,0.85
			c-0.11,0.13-0.14,0.25-0.18,0.39c-0.11,0.43-0.27,0.74-1.28,0.9c-1.39,0.22-1.46,0.22-3.91,0.25c-0.48,0.01-0.9,0.01-1.27,0.01
			c-1.46,0-2.13,0.01-2.62,0.25l-0.23-0.45c0.6-0.3,1.3-0.3,2.85-0.3c0.37,0,0.79,0,1.26-0.01c2.41-0.03,2.48-0.03,3.84-0.24
			c0.77-0.12,0.81-0.27,0.87-0.53c0.04-0.17,0.1-0.37,0.28-0.58c0.51-0.61,1.41-0.76,2.91-1.02c1.27-0.22,1.42-0.29,2.18-0.61
			l0.44-0.19c1.26-0.53,3.21-1.2,5.37-1.36c2.16-0.17,2.71,0.18,2.9,0.8c0.03,0.11,0.6,0.1,1.31,0.08c0.41-0.01,0.91-0.02,1.55-0.02
			c0.65,0,1.3-0.01,1.98-0.02c1.75-0.02,3.74-0.05,6.83,0.09c2.92,0.13,3.42,0.11,4.43,0.08c0.51-0.02,1.15-0.04,2.28-0.05
			c2.18-0.03,2.92,0.18,3.9,0.45c0.56,0.16,1.19,0.34,2.26,0.51c1.68,0.27,2.21,0.24,2.83,0.2c0.45-0.03,0.96-0.06,1.99,0.03
			c1.4,0.13,2.16,0.34,3.11,0.62c0.68,0.19,1.45,0.42,2.64,0.65c2.96,0.6,4.82,0.8,8.68,0.55c4.04-0.26,5.7-0.37,7.46,0.02
			c0.71,0.16,1.05,0.3,1.35,0.42c0.43,0.17,0.74,0.3,2.04,0.39c0.43,0.03,0.76,0.05,1.04,0.07c1.16,0.07,1.25,0.08,3.34,0.47
			c2.52,0.47,4.69,0.89,9.69,1.96c1.29,0.28,2.45,0.53,3.51,0.76c3.07,0.67,5.28,1.16,7.67,1.53c0.92,0.14,1.99,0.29,3.13,0.44
			c2.94,0.39,6.27,0.84,8.72,1.48c2.76,0.72,5.27,0.89,7.48,1.03c0.52,0.03,1.03,0.07,1.52,0.11c1.34,0.11,2.81,0.13,4.52,0.15
			c1.63,0.03,3.47,0.05,5.5,0.16c1.93,0.11,3.82,0.14,5.82,0.17c2.28,0.04,4.63,0.08,7.16,0.23l0.68,0.04
			c4.13,0.25,4.13,0.25,8.67,0.13c2.99-0.08,3.13-0.18,3.35-0.33c0.19-0.12,0.42-0.28,1.34-0.47c1.57-0.33,2.67-0.09,3.83,0.17
			c0.66,0.15,1.34,0.3,2.16,0.36c0.42,0.03,0.81,0.05,1.18,0.08c1.68,0.1,2.89,0.17,4.98,1.05c0.91,0.38,1.34,0.56,1.54,0.64
			l0.01-0.02c0.01,0,0.02,0.01,0.04,0.02c0.07,0.03,0.15,0.07,0.2,0.11c0.3,0.17,0.9,0.57,2.02,1.45c0.52,0.41,0.77,0.67,0.66,0.93
			c-0.11,0.28-0.45,0.25-1,0.2c-0.4-0.04-0.93-0.09-1.3,0.01c0.81,0.23,3.49,0.48,8.11,0.58c2.23,0.05,2.68,0.11,2.86,0.4
			c0.12,0.2,0.03,0.4-0.06,0.57c-0.11,0.23-0.24,0.5-0.08,0.9c0.27,0.68,0.41,0.75,0.42,0.75c0.07-0.03,0.27-0.28,0.69-1.31
			c0.74-1.8,1.31-1.99,4.2-2.27c1.79-0.17,2.09,0.32,2.32,1.04c0.11,0.35,0.21,0.65,0.71,0.85c0.4,0.16,0.75,0.17,1.07,0.02
			c0.66-0.3,1.07-1.18,1.29-1.87l0.48,0.16c-0.26,0.78-0.74,1.79-1.56,2.16c-0.45,0.2-0.95,0.2-1.48-0.02
			c-0.72-0.29-0.88-0.78-1-1.16c-0.16-0.49-0.27-0.84-1.79-0.69c-2.84,0.27-3.16,0.43-3.78,1.96
			C188.61,143.02,188.31,143.54,187.89,143.54z"/>
	</g>
	<path class="st26" d="M198.81,81.53c-0.37,1.11-1.52,3.03-3.04,2.4c-1.51-0.62-0.04-2.15-2.89-1.87c-2.83,0.27-3.28,0.46-3.95,2.11
		c-0.67,1.66-1.01,2.01-1.57,0.56c-0.56-1.44,1.86-1.61-2.46-1.71c-4.27-0.09-9.3-0.4-8.35-0.96c0.95-0.57,3.53,0.56,1.8-0.81
		c-1.72-1.36-2.18-1.54-2.18-1.54s0.98,0.45-1.54-0.62c-2.49-1.06-3.71-0.92-6.02-1.1c-2.29-0.18-3.5-1.03-5.85-0.53
		c-2.34,0.5,0.11,0.67-4.69,0.8c-4.74,0.13-4.54,0.12-9.27-0.17c-4.66-0.29-8.73-0.18-12.84-0.4c-4.06-0.22-7.3-0.11-9.92-0.32
		c-2.6-0.21-5.56-0.25-8.95-1.15c-3.34-0.88-8.46-1.41-11.69-1.91c-3.19-0.5-6.11-1.22-11.08-2.29c-4.87-1.05-7-1.47-9.58-1.95
		c-2.55-0.48-2.08-0.38-4.3-0.54c-2.2-0.16-1.67-0.43-3.39-0.82c-1.71-0.38-3.35-0.28-7.31-0.02c-3.91,0.26-5.79,0.02-8.66-0.56
		c-2.83-0.58-3.32-1.05-5.67-1.27c-2.33-0.21-1.85,0.26-4.79-0.23c-2.9-0.48-2.65-0.99-6.05-0.96c-3.37,0.03-2.32,0.17-6.65-0.03
		c-4.27-0.2-6.44-0.06-8.7-0.07c-2.25-0.01-2.94,0.16-3.07-0.24c-0.12-0.41-0.45-0.79-2.61-0.63c-2.15,0.17-4.07,0.84-5.24,1.34
		c-1.17,0.5-1.15,0.56-2.65,0.81c-1.49,0.26-2.29,0.4-2.73,0.93c-0.44,0.53,0.07,0.99-1.29,1.21c-1.36,0.21-1.42,0.22-3.83,0.25
		c-2.39,0.03-3.29-0.05-3.96,0.28c-0.67,0.34-2.13,0.73-2.13,0.73"/>
	<path class="st32" d="M198.78,74.62"/>
	<g>
		<polygon class="st3" points="9.81,69.22 9.76,126.65 9.71,69.22 		"/>
	</g>
	<g>
		<polygon class="st3" points="13.56,67.14 13.51,124.33 13.46,67.14 		"/>
	</g>
	<g>
		<polygon class="st3" points="26.33,65.41 26.28,123.19 26.23,65.41 		"/>
	</g>
	<g>
		<polygon class="st3" points="24.5,64.67 24.45,122.61 24.4,64.67 		"/>
	</g>
	<g>
		<polygon class="st3" points="46.67,65.78 46.62,123.72 46.57,65.78 		"/>
	</g>
	<g>
		<polygon class="st3" points="78.17,69.06 78.12,127 78.07,69.06 		"/>
	</g>
	<g>
		<polygon class="st3" points="161.06,78.06 161.01,136 160.96,78.06 		"/>
	</g>
	<g>
		<polygon class="st3" points="176.61,82.17 176.56,140.11 176.51,82.17 		"/>
	</g>
	<g>
		<polygon class="st3" points="188.06,85.72 188.01,143.67 187.96,85.72 		"/>
	</g>
	<g>
		<polygon class="st3" points="194.94,82.83 194.89,140.78 194.84,82.83 		"/>
	</g>
</g>
</svg>
